<svg width="500" height="150" viewBox="0 0 500 150" fill="none" xmlns="http://www.w3.org/2000/svg">
<path d="M54 103V26C54 24 55.5 21.5 58.5 21.5C61.5 21.5 63 24 63 26V94H100.5C100.5 94 105 94 105 98.5C105 103 100.5 103 100.5 103H54Z" fill="black" stroke="black"/>
<path d="M62 99V22C62 20 63.5 17.5 66.5 17.5C69.5 17.5 71 20 71 22V90H108.5C108.5 90 113 90 113 94.5C113 99 108.5 99 108.5 99H62Z" fill="white" stroke="black"/>
<path d="M69.5 94.5V17.5C69.5 15.5 71 13 74 13C77 13 78.5 15.5 78.5 17.5V85.5H116C116 85.5 120.5 85.5 120.5 90C120.5 94.5 116 94.5 116 94.5H69.5Z" fill="#013220" stroke="#013220"/>
<path d="M12.9 135.9C11.7 135.9 10.7333 135.533 10 134.8C9.33333 134.133 9 133.2 9 132V84.8C9.06667 79.6 10.3 74.9333 12.7 70.8C15.1667 66.6 18.4667 63.3 22.6 60.9C26.8 58.5 31.5 57.3 36.7 57.3C42.0333 57.3 46.8 58.5333 51 61C55.2 63.4 58.5 66.7 60.9 70.9C63.3667 75.1 64.6 79.8667 64.6 85.2C64.6 90.4667 63.4 95.2 61 99.4C58.6667 103.6 55.4667 106.933 51.4 109.4C47.3333 111.8 42.7333 113 37.6 113C33.1333 113 29.0667 112.067 25.4 110.2C21.8 108.267 18.9 105.733 16.7 102.6V132C16.7 133.2 16.3333 134.133 15.6 134.8C14.9333 135.533 14.0333 135.9 12.9 135.9ZM36.7 106C40.5667 106 44.0333 105.1 47.1 103.3C50.1667 101.5 52.5667 99.0333 54.3 95.9C56.1 92.7 57 89.1333 57 85.2C57 81.2 56.1 77.6333 54.3 74.5C52.5667 71.3667 50.1667 68.9 47.1 67.1C44.0333 65.2333 40.5667 64.3 36.7 64.3C32.9 64.3 29.4667 65.2333 26.4 67.1C23.3333 68.9 20.9333 71.3667 19.2 74.5C17.4667 77.6333 16.6 81.2 16.6 85.2C16.6 89.1333 17.4667 92.7 19.2 95.9C20.9333 99.0333 23.3333 101.5 26.4 103.3C29.4667 105.1 32.9 106 36.7 106Z" fill="black"/>
<path d="M10 134.8L10.3536 134.446L10 134.8ZM9 84.8L8.5 84.7936V84.8H9ZM12.7 70.8L12.2689 70.5468L12.2676 70.5489L12.7 70.8ZM22.6 60.9L22.3519 60.4659L22.3489 60.4676L22.6 60.9ZM51 61L50.7468 61.4312L50.7519 61.4341L51 61ZM60.9 70.9L60.4659 71.1481L60.4689 71.1532L60.9 70.9ZM61 99.4L60.5658 99.1519L60.5629 99.1572L61 99.4ZM51.4 109.4L51.6541 109.831L51.6593 109.828L51.4 109.4ZM25.4 110.2L25.1634 110.641L25.1732 110.646L25.4 110.2ZM16.7 102.6L17.1092 102.313L16.2 101.018V102.6H16.7ZM15.6 134.8L15.2637 134.43L15.246 134.446L15.23 134.464L15.6 134.8ZM47.1 103.3L46.8469 102.869L47.1 103.3ZM54.3 95.9L53.8642 95.6549L53.8625 95.658L54.3 95.9ZM54.3 74.5L53.8624 74.7421L53.8665 74.7491L54.3 74.5ZM47.1 67.1L46.84 67.5272L46.8469 67.5312L47.1 67.1ZM26.4 67.1L26.6531 67.5313L26.66 67.5271L26.4 67.1ZM19.2 74.5L18.7625 74.258L19.2 74.5ZM19.2 95.9L18.7603 96.1382L18.7625 96.142L19.2 95.9ZM26.4 103.3L26.1469 103.731L26.4 103.3ZM12.9 135.4C11.8101 135.4 10.9783 135.071 10.3536 134.446L9.64645 135.154C10.4884 135.995 11.5899 136.4 12.9 136.4V135.4ZM10.3536 134.446C9.80447 133.897 9.5 133.105 9.5 132H8.5C8.5 133.295 8.8622 134.369 9.64645 135.154L10.3536 134.446ZM9.5 132V84.8H8.5V132H9.5ZM9.49996 84.8064C9.56562 79.6846 10.7793 75.1036 13.1324 71.0511L12.2676 70.5489C9.82067 74.7631 8.56771 79.5154 8.50004 84.7936L9.49996 84.8064ZM13.1311 71.0532C15.5551 66.926 18.7937 63.6883 22.8511 61.3324L22.3489 60.4676C18.1397 62.9117 14.7783 66.274 12.2689 70.5468L13.1311 71.0532ZM22.8481 61.3341C26.9669 58.9805 31.5803 57.8 36.7 57.8V56.8C31.4197 56.8 26.6331 58.0195 22.3519 60.4659L22.8481 61.3341ZM36.7 57.8C41.953 57.8 46.6307 59.0138 50.7468 61.4311L51.2532 60.5689C46.9693 58.0529 42.1137 56.8 36.7 56.8V57.8ZM50.7519 61.4341C54.8744 63.7898 58.1102 67.0256 60.4659 71.1481L61.3341 70.6519C58.8898 66.3744 55.5256 63.0102 51.2481 60.5659L50.7519 61.4341ZM60.4689 71.1532C62.8862 75.2693 64.1 79.947 64.1 85.2H65.1C65.1 79.7863 63.8471 74.9307 61.3311 70.6468L60.4689 71.1532ZM64.1 85.2C64.1 90.3876 62.9189 95.0341 60.5659 99.1519L61.4341 99.6481C63.8811 95.3659 65.1 90.5457 65.1 85.2H64.1ZM60.5629 99.1572C58.2713 103.282 55.1323 106.551 51.1407 108.972L51.6593 109.828C55.8011 107.315 59.062 103.918 61.4371 99.6428L60.5629 99.1572ZM51.1459 108.969C47.1628 111.32 42.652 112.5 37.6 112.5V113.5C42.8147 113.5 47.5038 112.28 51.6541 109.831L51.1459 108.969ZM37.6 112.5C33.2053 112.5 29.2174 111.582 25.6268 109.754L25.1732 110.646C28.916 112.551 33.0614 113.5 37.6 113.5V112.5ZM25.6366 109.76C22.1005 107.861 19.2614 105.378 17.1092 102.313L16.2908 102.887C18.5386 106.089 21.4995 108.673 25.1634 110.64L25.6366 109.76ZM16.2 102.6V132H17.2V102.6H16.2ZM16.2 132C16.2 133.091 15.8711 133.878 15.2637 134.43L15.9363 135.17C16.7956 134.389 17.2 133.309 17.2 132H16.2ZM15.23 134.464C14.6722 135.077 13.9148 135.4 12.9 135.4V136.4C14.1519 136.4 15.1945 135.989 15.97 135.136L15.23 134.464ZM36.7 106.5C40.6476 106.5 44.2031 105.58 47.3531 103.731L46.8469 102.869C43.8636 104.62 40.4857 105.5 36.7 105.5V106.5ZM47.3531 103.731C50.4977 101.885 52.9611 99.3532 54.7375 96.142L53.8625 95.658C52.1722 98.7134 49.8357 101.115 46.8469 102.869L47.3531 103.731ZM54.7358 96.1451C56.5809 92.865 57.5 89.2129 57.5 85.2H56.5C56.5 89.0538 55.6191 92.535 53.8642 95.6549L54.7358 96.1451ZM57.5 85.2C57.5 81.1222 56.5816 77.468 54.7336 74.2509L53.8665 74.7491C55.6184 77.7987 56.5 81.2778 56.5 85.2H57.5ZM54.7375 74.258C52.9611 71.0468 50.4977 68.5145 47.3531 66.6688L46.8469 67.5312C49.8357 69.2855 52.1722 71.6866 53.8625 74.742L54.7375 74.258ZM47.36 66.6729C44.2089 64.7549 40.651 63.8 36.7 63.8V64.8C40.4823 64.8 43.8577 65.7118 46.84 67.5271L47.36 66.6729ZM36.7 63.8C32.8139 63.8 29.2897 64.7557 26.14 66.6729L26.66 67.5271C29.6437 65.7109 32.9861 64.8 36.7 64.8V63.8ZM26.1469 66.6688C23.0023 68.5145 20.5389 71.0468 18.7625 74.258L19.6375 74.742C21.3278 71.6866 23.6643 69.2855 26.6531 67.5312L26.1469 66.6688ZM18.7625 74.258C16.9835 77.4737 16.1 81.1254 16.1 85.2H17.1C17.1 81.2746 17.9498 77.7929 19.6375 74.742L18.7625 74.258ZM16.1 85.2C16.1 89.2096 16.9843 92.8592 18.7604 96.1381L19.6396 95.6619C17.9491 92.5408 17.1 89.0571 17.1 85.2H16.1ZM18.7625 96.142C20.5389 99.3532 23.0023 101.885 26.1469 103.731L26.6531 102.869C23.6643 101.115 21.3278 98.7134 19.6375 95.658L18.7625 96.142ZM26.1469 103.731C29.2956 105.579 32.8173 106.5 36.7 106.5V105.5C32.9827 105.5 29.6377 104.621 26.6531 102.869L26.1469 103.731Z" fill="black"/>
<path d="M19.9 131.9C18.7 131.9 17.7333 131.533 17 130.8C16.3333 130.133 16 129.2 16 128V80.8C16.0667 75.6 17.3 70.9333 19.7 66.8C22.1667 62.6 25.4667 59.3 29.6 56.9C33.8 54.5 38.5 53.3 43.7 53.3C49.0333 53.3 53.8 54.5333 58 57C62.2 59.4 65.5 62.7 67.9 66.9C70.3667 71.1 71.6 75.8667 71.6 81.2C71.6 86.4667 70.4 91.2 68 95.4C65.6667 99.6 62.4667 102.933 58.4 105.4C54.3333 107.8 49.7333 109 44.6 109C40.1333 109 36.0667 108.067 32.4 106.2C28.8 104.267 25.9 101.733 23.7 98.6V128C23.7 129.2 23.3333 130.133 22.6 130.8C21.9333 131.533 21.0333 131.9 19.9 131.9ZM43.7 102C47.5667 102 51.0333 101.1 54.1 99.3C57.1667 97.5 59.5667 95.0333 61.3 91.9C63.1 88.7 64 85.1333 64 81.2C64 77.2 63.1 73.6333 61.3 70.5C59.5667 67.3667 57.1667 64.9 54.1 63.1C51.0333 61.2333 47.5667 60.3 43.7 60.3C39.9 60.3 36.4667 61.2333 33.4 63.1C30.3333 64.9 27.9333 67.3667 26.2 70.5C24.4667 73.6333 23.6 77.2 23.6 81.2C23.6 85.1333 24.4667 88.7 26.2 91.9C27.9333 95.0333 30.3333 97.5 33.4 99.3C36.4667 101.1 39.9 102 43.7 102Z" fill="white"/>
<path d="M17 130.8L17.3536 130.446L17 130.8ZM16 80.8L15.5 80.7936V80.8H16ZM19.7 66.8L19.2689 66.5468L19.2676 66.5489L19.7 66.8ZM29.6 56.9L29.3519 56.4659L29.3489 56.4676L29.6 56.9ZM58 57L57.7468 57.4312L57.7519 57.4341L58 57ZM67.9 66.9L67.4659 67.1481L67.4689 67.1532L67.9 66.9ZM68 95.4L67.5658 95.1519L67.5629 95.1572L68 95.4ZM58.4 105.4L58.6541 105.831L58.6593 105.828L58.4 105.4ZM32.4 106.2L32.1634 106.641L32.1732 106.646L32.4 106.2ZM23.7 98.6L24.1092 98.3127L23.2 97.0178V98.6H23.7ZM22.6 130.8L22.2637 130.43L22.246 130.446L22.23 130.464L22.6 130.8ZM54.1 99.3L53.8469 98.8688L54.1 99.3ZM61.3 91.9L60.8642 91.6549L60.8625 91.658L61.3 91.9ZM61.3 70.5L60.8624 70.7421L60.8665 70.7491L61.3 70.5ZM54.1 63.1L53.84 63.5272L53.8469 63.5312L54.1 63.1ZM33.4 63.1L33.6531 63.5313L33.66 63.5271L33.4 63.1ZM26.2 70.5L25.7625 70.258L26.2 70.5ZM26.2 91.9L25.7603 92.1382L25.7625 92.142L26.2 91.9ZM33.4 99.3L33.1469 99.7312L33.4 99.3ZM19.9 131.4C18.8101 131.4 17.9783 131.071 17.3536 130.446L16.6464 131.154C17.4884 131.995 18.5899 132.4 19.9 132.4V131.4ZM17.3536 130.446C16.8045 129.897 16.5 129.105 16.5 128H15.5C15.5 129.295 15.8622 130.369 16.6464 131.154L17.3536 130.446ZM16.5 128V80.8H15.5V128H16.5ZM16.5 80.8064C16.5656 75.6846 17.7793 71.1036 20.1324 67.0511L19.2676 66.5489C16.8207 70.7631 15.5677 75.5154 15.5 80.7936L16.5 80.8064ZM20.1311 67.0532C22.5551 62.926 25.7937 59.6883 29.8511 57.3324L29.3489 56.4676C25.1397 58.9117 21.7783 62.274 19.2689 66.5468L20.1311 67.0532ZM29.8481 57.3341C33.9669 54.9805 38.5803 53.8 43.7 53.8V52.8C38.4197 52.8 33.6331 54.0195 29.3519 56.4659L29.8481 57.3341ZM43.7 53.8C48.953 53.8 53.6307 55.0138 57.7468 57.4311L58.2532 56.5689C53.9693 54.0529 49.1137 52.8 43.7 52.8V53.8ZM57.7519 57.4341C61.8744 59.7898 65.1102 63.0256 67.4659 67.1481L68.3341 66.6519C65.8898 62.3744 62.5256 59.0102 58.2481 56.5659L57.7519 57.4341ZM67.4689 67.1532C69.8862 71.2693 71.1 75.947 71.1 81.2H72.1C72.1 75.7863 70.8471 70.9307 68.3311 66.6468L67.4689 67.1532ZM71.1 81.2C71.1 86.3876 69.9189 91.0341 67.5659 95.1519L68.4341 95.6481C70.8811 91.3659 72.1 86.5457 72.1 81.2H71.1ZM67.5629 95.1572C65.2713 99.282 62.1323 102.551 58.1407 104.972L58.6593 105.828C62.8011 103.315 66.062 99.918 68.4371 95.6428L67.5629 95.1572ZM58.1459 104.969C54.1628 107.32 49.652 108.5 44.6 108.5V109.5C49.8147 109.5 54.5038 108.28 58.6541 105.831L58.1459 104.969ZM44.6 108.5C40.2053 108.5 36.2174 107.582 32.6268 105.754L32.1732 106.646C35.916 108.551 40.0614 109.5 44.6 109.5V108.5ZM32.6366 105.76C29.1005 103.861 26.2614 101.378 24.1092 98.3127L23.2908 98.8873C25.5386 102.089 28.4995 104.673 32.1634 106.64L32.6366 105.76ZM23.2 98.6V128H24.2V98.6H23.2ZM23.2 128C23.2 129.091 22.8711 129.878 22.2637 130.43L22.9363 131.17C23.7956 130.389 24.2 129.309 24.2 128H23.2ZM22.23 130.464C21.6722 131.077 20.9148 131.4 19.9 131.4V132.4C21.1519 132.4 22.1945 131.989 22.97 131.136L22.23 130.464ZM43.7 102.5C47.6476 102.5 51.2031 101.58 54.3531 99.7312L53.8469 98.8688C50.8636 100.62 47.4857 101.5 43.7 101.5V102.5ZM54.3531 99.7312C57.4977 97.8855 59.9611 95.3532 61.7375 92.142L60.8625 91.658C59.1722 94.7134 56.8357 97.1145 53.8469 98.8688L54.3531 99.7312ZM61.7358 92.1451C63.5809 88.865 64.5 85.2129 64.5 81.2H63.5C63.5 85.0538 62.6191 88.535 60.8642 91.6549L61.7358 92.1451ZM64.5 81.2C64.5 77.1222 63.5816 73.468 61.7336 70.2509L60.8665 70.7491C62.6184 73.7987 63.5 77.2778 63.5 81.2H64.5ZM61.7375 70.258C59.9611 67.0468 57.4977 64.5145 54.3531 62.6688L53.8469 63.5312C56.8357 65.2855 59.1722 67.6866 60.8625 70.742L61.7375 70.258ZM54.36 62.6729C51.2089 60.7549 47.651 59.8 43.7 59.8V60.8C47.4823 60.8 50.8577 61.7118 53.84 63.5271L54.36 62.6729ZM43.7 59.8C39.8139 59.8 36.2897 60.7557 33.14 62.6729L33.66 63.5271C36.6437 61.7109 39.9861 60.8 43.7 60.8V59.8ZM33.1469 62.6688C30.0023 64.5145 27.5389 67.0468 25.7625 70.258L26.6375 70.742C28.3278 67.6866 30.6643 65.2855 33.6531 63.5312L33.1469 62.6688ZM25.7625 70.258C23.9835 73.4737 23.1 77.1254 23.1 81.2H24.1C24.1 77.2746 24.9498 73.7929 26.6375 70.742L25.7625 70.258ZM23.1 81.2C23.1 85.2096 23.9843 88.8592 25.7604 92.1381L26.6396 91.6619C24.9491 88.5408 24.1 85.0571 24.1 81.2H23.1ZM25.7625 92.142C27.5389 95.3532 30.0023 97.8855 33.1469 99.7312L33.6531 98.8688C30.6643 97.1145 28.3278 94.7134 26.6375 91.658L25.7625 92.142ZM33.1469 99.7312C36.2956 101.579 39.8173 102.5 43.7 102.5V101.5C39.9827 101.5 36.6377 100.621 33.6531 98.8688L33.1469 99.7312Z" fill="black"/>
<path d="M25.9 128.9C24.7 128.9 23.7333 128.533 23 127.8C22.3333 127.133 22 126.2 22 125V77.8C22.0667 72.6 23.3 67.9333 25.7 63.8C28.1667 59.6 31.4667 56.3 35.6 53.9C39.8 51.5 44.5 50.3 49.7 50.3C55.0333 50.3 59.8 51.5333 64 54C68.2 56.4 71.5 59.7 73.9 63.9C76.3667 68.1 77.6 72.8667 77.6 78.2C77.6 83.4667 76.4 88.2 74 92.4C71.6667 96.6 68.4667 99.9333 64.4 102.4C60.3333 104.8 55.7333 106 50.6 106C46.1333 106 42.0667 105.067 38.4 103.2C34.8 101.267 31.9 98.7333 29.7 95.6V125C29.7 126.2 29.3333 127.133 28.6 127.8C27.9333 128.533 27.0333 128.9 25.9 128.9ZM49.7 99C53.5667 99 57.0333 98.1 60.1 96.3C63.1667 94.5 65.5667 92.0333 67.3 88.9C69.1 85.7 70 82.1333 70 78.2C70 74.2 69.1 70.6333 67.3 67.5C65.5667 64.3667 63.1667 61.9 60.1 60.1C57.0333 58.2333 53.5667 57.3 49.7 57.3C45.9 57.3 42.4667 58.2333 39.4 60.1C36.3333 61.9 33.9333 64.3667 32.2 67.5C30.4667 70.6333 29.6 74.2 29.6 78.2C29.6 82.1333 30.4667 85.7 32.2 88.9C33.9333 92.0333 36.3333 94.5 39.4 96.3C42.4667 98.1 45.9 99 49.7 99Z" fill="#013220"/>
<path d="M23 127.8L23.3536 127.446L23 127.8ZM22 77.8L21.5 77.7936V77.8H22ZM25.7 63.8L25.2689 63.5468L25.2676 63.5489L25.7 63.8ZM35.6 53.9L35.3519 53.4659L35.3489 53.4676L35.6 53.9ZM64 54L63.7468 54.4312L63.7519 54.4341L64 54ZM73.9 63.9L73.4659 64.1481L73.4689 64.1532L73.9 63.9ZM74 92.4L73.5658 92.1519L73.5629 92.1572L74 92.4ZM64.4 102.4L64.6541 102.831L64.6593 102.828L64.4 102.4ZM38.4 103.2L38.1634 103.641L38.1732 103.646L38.4 103.2ZM29.7 95.6L30.1092 95.3127L29.2 94.0178V95.6H29.7ZM28.6 127.8L28.2637 127.43L28.246 127.446L28.23 127.464L28.6 127.8ZM60.1 96.3L59.8469 95.8688L60.1 96.3ZM67.3 88.9L66.8642 88.6549L66.8625 88.658L67.3 88.9ZM67.3 67.5L66.8624 67.7421L66.8665 67.7491L67.3 67.5ZM60.1 60.1L59.84 60.5272L59.8469 60.5312L60.1 60.1ZM39.4 60.1L39.6531 60.5313L39.66 60.5271L39.4 60.1ZM32.2 67.5L31.7625 67.258L32.2 67.5ZM32.2 88.9L31.7603 89.1382L31.7625 89.142L32.2 88.9ZM39.4 96.3L39.1469 96.7312L39.4 96.3ZM25.9 128.4C24.8101 128.4 23.9783 128.071 23.3536 127.446L22.6464 128.154C23.4884 128.995 24.5899 129.4 25.9 129.4V128.4ZM23.3536 127.446C22.8045 126.897 22.5 126.105 22.5 125H21.5C21.5 126.295 21.8622 127.369 22.6464 128.154L23.3536 127.446ZM22.5 125V77.8H21.5V125H22.5ZM22.5 77.8064C22.5656 72.6846 23.7793 68.1036 26.1324 64.0511L25.2676 63.5489C22.8207 67.7631 21.5677 72.5154 21.5 77.7936L22.5 77.8064ZM26.1311 64.0532C28.5551 59.926 31.7937 56.6883 35.8511 54.3324L35.3489 53.4676C31.1397 55.9117 27.7783 59.274 25.2689 63.5468L26.1311 64.0532ZM35.8481 54.3341C39.9669 51.9805 44.5803 50.8 49.7 50.8V49.8C44.4197 49.8 39.6331 51.0195 35.3519 53.4659L35.8481 54.3341ZM49.7 50.8C54.953 50.8 59.6307 52.0138 63.7468 54.4311L64.2532 53.5689C59.9693 51.0529 55.1137 49.8 49.7 49.8V50.8ZM63.7519 54.4341C67.8744 56.7898 71.1102 60.0256 73.4659 64.1481L74.3341 63.6519C71.8898 59.3744 68.5256 56.0102 64.2481 53.5659L63.7519 54.4341ZM73.4689 64.1532C75.8862 68.2693 77.1 72.947 77.1 78.2H78.1C78.1 72.7863 76.8471 67.9307 74.3311 63.6468L73.4689 64.1532ZM77.1 78.2C77.1 83.3876 75.9189 88.0341 73.5659 92.1519L74.4341 92.6481C76.8811 88.3659 78.1 83.5457 78.1 78.2H77.1ZM73.5629 92.1572C71.2713 96.282 68.1323 99.5514 64.1407 101.972L64.6593 102.828C68.8011 100.315 72.062 96.918 74.4371 92.6428L73.5629 92.1572ZM64.1459 101.969C60.1628 104.32 55.652 105.5 50.6 105.5V106.5C55.8147 106.5 60.5038 105.28 64.6541 102.831L64.1459 101.969ZM50.6 105.5C46.2053 105.5 42.2174 104.582 38.6268 102.754L38.1732 103.646C41.916 105.551 46.0614 106.5 50.6 106.5V105.5ZM38.6366 102.76C35.1005 100.861 32.2614 98.3779 30.1092 95.3127L29.2908 95.8873C31.5386 99.0887 34.4995 101.673 38.1634 103.64L38.6366 102.76ZM29.2 95.6V125H30.2V95.6H29.2ZM29.2 125C29.2 126.091 28.8711 126.878 28.2637 127.43L28.9363 128.17C29.7956 127.389 30.2 126.309 30.2 125H29.2ZM28.23 127.464C27.6722 128.077 26.9148 128.4 25.9 128.4V129.4C27.1519 129.4 28.1945 128.989 28.97 128.136L28.23 127.464ZM49.7 99.5C53.6476 99.5 57.2031 98.5801 60.3531 96.7312L59.8469 95.8688C56.8636 97.6199 53.4857 98.5 49.7 98.5V99.5ZM60.3531 96.7312C63.4977 94.8855 65.9611 92.3532 67.7375 89.142L66.8625 88.658C65.1722 91.7134 62.8357 94.1145 59.8469 95.8688L60.3531 96.7312ZM67.7358 89.1451C69.5809 85.865 70.5 82.2129 70.5 78.2H69.5C69.5 82.0538 68.6191 85.535 66.8642 88.6549L67.7358 89.1451ZM70.5 78.2C70.5 74.1222 69.5816 70.468 67.7336 67.2509L66.8665 67.7491C68.6184 70.7987 69.5 74.2778 69.5 78.2H70.5ZM67.7375 67.258C65.9611 64.0468 63.4977 61.5145 60.3531 59.6688L59.8469 60.5312C62.8357 62.2855 65.1722 64.6866 66.8625 67.742L67.7375 67.258ZM60.36 59.6729C57.2089 57.7549 53.651 56.8 49.7 56.8V57.8C53.4823 57.8 56.8577 58.7118 59.84 60.5271L60.36 59.6729ZM49.7 56.8C45.8139 56.8 42.2897 57.7557 39.14 59.6729L39.66 60.5271C42.6437 58.7109 45.9861 57.8 49.7 57.8V56.8ZM39.1469 59.6688C36.0023 61.5145 33.5389 64.0468 31.7625 67.258L32.6375 67.742C34.3278 64.6866 36.6643 62.2855 39.6531 60.5312L39.1469 59.6688ZM31.7625 67.258C29.9835 70.4737 29.1 74.1254 29.1 78.2H30.1C30.1 74.2746 30.9498 70.7929 32.6375 67.742L31.7625 67.258ZM29.1 78.2C29.1 82.2096 29.9843 85.8592 31.7604 89.1381L32.6396 88.6619C30.9491 85.5408 30.1 82.0571 30.1 78.2H29.1ZM31.7625 89.142C33.5389 92.3532 36.0023 94.8855 39.1469 96.7312L39.6531 95.8688C36.6643 94.1145 34.3278 91.7134 32.6375 88.658L31.7625 89.142ZM39.1469 96.7312C42.2956 98.5794 45.8173 99.5 49.7 99.5V98.5C45.9827 98.5 42.6377 97.6206 39.6531 95.8688L39.1469 96.7312Z" fill="#013220"/>
<ellipse cx="50" cy="78" rx="20" ry="21.5" fill="white"/>
<path d="M134.805 100.53C134.265 100.53 133.83 100.365 133.5 100.035C133.2 99.735 133.05 99.315 133.05 98.775V77.535C133.08 75.195 133.635 73.095 134.715 71.235C135.825 69.345 137.31 67.86 139.17 66.78C141.06 65.7 143.175 65.16 145.515 65.16C147.915 65.16 150.06 65.715 151.95 66.825C153.84 67.905 155.325 69.39 156.405 71.28C157.515 73.17 158.07 75.315 158.07 77.715C158.07 80.085 157.53 82.215 156.45 84.105C155.4 85.995 153.96 87.495 152.13 88.605C150.3 89.685 148.23 90.225 145.92 90.225C143.91 90.225 142.08 89.805 140.43 88.965C138.81 88.095 137.505 86.955 136.515 85.545V98.775C136.515 99.315 136.35 99.735 136.02 100.035C135.72 100.365 135.315 100.53 134.805 100.53ZM145.515 87.075C147.255 87.075 148.815 86.67 150.195 85.86C151.575 85.05 152.655 83.94 153.435 82.53C154.245 81.09 154.65 79.485 154.65 77.715C154.65 75.915 154.245 74.31 153.435 72.9C152.655 71.49 151.575 70.38 150.195 69.57C148.815 68.73 147.255 68.31 145.515 68.31C143.805 68.31 142.26 68.73 140.88 69.57C139.5 70.38 138.42 71.49 137.64 72.9C136.86 74.31 136.47 75.915 136.47 77.715C136.47 79.485 136.86 81.09 137.64 82.53C138.42 83.94 139.5 85.05 140.88 85.86C142.26 86.67 143.805 87.075 145.515 87.075ZM166.621 90C166.081 90 165.646 89.85 165.316 89.55C165.016 89.22 164.866 88.8 164.866 88.29V67.14C164.866 66.6 165.016 66.18 165.316 65.88C165.646 65.55 166.081 65.385 166.621 65.385C167.131 65.385 167.536 65.55 167.836 65.88C168.166 66.18 168.331 66.6 168.331 67.14V68.67C169.291 67.56 170.476 66.69 171.886 66.06C173.326 65.43 174.871 65.115 176.521 65.115C178.651 65.115 180.556 65.565 182.236 66.465C183.916 67.335 185.236 68.625 186.196 70.335C187.186 72.045 187.681 74.13 187.681 76.59V88.29C187.681 88.77 187.516 89.175 187.186 89.505C186.856 89.835 186.451 90 185.971 90C185.461 90 185.041 89.835 184.711 89.505C184.381 89.175 184.216 88.77 184.216 88.29V76.59C184.216 73.8 183.436 71.745 181.876 70.425C180.346 69.075 178.441 68.4 176.161 68.4C174.691 68.4 173.356 68.685 172.156 69.255C170.986 69.825 170.056 70.605 169.366 71.595C168.676 72.585 168.331 73.71 168.331 74.97V88.29C168.331 88.8 168.166 89.22 167.836 89.55C167.536 89.85 167.131 90 166.621 90ZM166.621 79.965C166.081 79.965 165.646 79.8 165.316 79.47C165.016 79.14 164.866 78.72 164.866 78.21V56.61C164.866 56.07 165.016 55.65 165.316 55.35C165.646 55.02 166.081 54.855 166.621 54.855C167.131 54.855 167.536 55.02 167.836 55.35C168.166 55.65 168.331 56.07 168.331 56.61V78.21C168.331 78.72 168.166 79.14 167.836 79.47C167.536 79.8 167.131 79.965 166.621 79.965ZM197.796 90C197.256 90 196.821 89.85 196.491 89.55C196.191 89.22 196.041 88.785 196.041 88.245V67.14C196.041 66.6 196.191 66.18 196.491 65.88C196.821 65.55 197.256 65.385 197.796 65.385C198.306 65.385 198.711 65.55 199.011 65.88C199.341 66.18 199.506 66.6 199.506 67.14V88.245C199.506 88.785 199.341 89.22 199.011 89.55C198.711 89.85 198.306 90 197.796 90ZM197.751 60.705C197.091 60.705 196.521 60.465 196.041 59.985C195.561 59.505 195.321 58.92 195.321 58.23C195.321 57.48 195.561 56.895 196.041 56.475C196.551 56.025 197.136 55.8 197.796 55.8C198.426 55.8 198.981 56.025 199.461 56.475C199.971 56.895 200.226 57.48 200.226 58.23C200.226 58.92 199.986 59.505 199.506 59.985C199.026 60.465 198.441 60.705 197.751 60.705ZM213.638 90C211.838 90 210.353 89.28 209.183 87.84C208.013 86.37 207.428 84.495 207.428 82.215V56.565C207.428 56.055 207.578 55.65 207.878 55.35C208.208 55.02 208.628 54.855 209.138 54.855C209.648 54.855 210.053 55.02 210.353 55.35C210.683 55.65 210.848 56.055 210.848 56.565V82.215C210.848 83.505 211.103 84.555 211.613 85.365C212.153 86.175 212.828 86.58 213.638 86.58H214.763C215.213 86.58 215.573 86.745 215.843 87.075C216.113 87.375 216.248 87.78 216.248 88.29C216.248 88.8 216.053 89.22 215.663 89.55C215.303 89.85 214.823 90 214.223 90H213.638ZM226.339 90C224.539 90 223.054 89.28 221.884 87.84C220.714 86.37 220.129 84.495 220.129 82.215V56.565C220.129 56.055 220.279 55.65 220.579 55.35C220.909 55.02 221.329 54.855 221.839 54.855C222.349 54.855 222.754 55.02 223.054 55.35C223.384 55.65 223.549 56.055 223.549 56.565V82.215C223.549 83.505 223.804 84.555 224.314 85.365C224.854 86.175 225.529 86.58 226.339 86.58H227.464C227.914 86.58 228.274 86.745 228.544 87.075C228.814 87.375 228.949 87.78 228.949 88.29C228.949 88.8 228.754 89.22 228.364 89.55C228.004 89.85 227.524 90 226.924 90H226.339ZM236.204 90C235.664 90 235.229 89.85 234.899 89.55C234.599 89.22 234.449 88.785 234.449 88.245V67.14C234.449 66.6 234.599 66.18 234.899 65.88C235.229 65.55 235.664 65.385 236.204 65.385C236.714 65.385 237.119 65.55 237.419 65.88C237.749 66.18 237.914 66.6 237.914 67.14V88.245C237.914 88.785 237.749 89.22 237.419 89.55C237.119 89.85 236.714 90 236.204 90ZM236.159 60.705C235.499 60.705 234.929 60.465 234.449 59.985C233.969 59.505 233.729 58.92 233.729 58.23C233.729 57.48 233.969 56.895 234.449 56.475C234.959 56.025 235.544 55.8 236.204 55.8C236.834 55.8 237.389 56.025 237.869 56.475C238.379 56.895 238.634 57.48 238.634 58.23C238.634 58.92 238.394 59.505 237.914 59.985C237.434 60.465 236.849 60.705 236.159 60.705ZM248.492 100.53C247.952 100.53 247.517 100.365 247.187 100.035C246.887 99.735 246.737 99.315 246.737 98.775V77.535C246.767 75.195 247.322 73.095 248.402 71.235C249.512 69.345 250.997 67.86 252.857 66.78C254.747 65.7 256.862 65.16 259.202 65.16C261.602 65.16 263.747 65.715 265.637 66.825C267.527 67.905 269.012 69.39 270.092 71.28C271.202 73.17 271.757 75.315 271.757 77.715C271.757 80.085 271.217 82.215 270.137 84.105C269.087 85.995 267.647 87.495 265.817 88.605C263.987 89.685 261.917 90.225 259.607 90.225C257.597 90.225 255.767 89.805 254.117 88.965C252.497 88.095 251.192 86.955 250.202 85.545V98.775C250.202 99.315 250.037 99.735 249.707 100.035C249.407 100.365 249.002 100.53 248.492 100.53ZM259.202 87.075C260.942 87.075 262.502 86.67 263.882 85.86C265.262 85.05 266.342 83.94 267.122 82.53C267.932 81.09 268.337 79.485 268.337 77.715C268.337 75.915 267.932 74.31 267.122 72.9C266.342 71.49 265.262 70.38 263.882 69.57C262.502 68.73 260.942 68.31 259.202 68.31C257.492 68.31 255.947 68.73 254.567 69.57C253.187 70.38 252.107 71.49 251.327 72.9C250.547 74.31 250.157 75.915 250.157 77.715C250.157 79.485 250.547 81.09 251.327 82.53C252.107 83.94 253.187 85.05 254.567 85.86C255.947 86.67 257.492 87.075 259.202 87.075Z" fill="#013220"/>
<path d="M133.5 100.035L133.854 99.6814L133.5 100.035ZM133.05 77.535L132.55 77.5286V77.535H133.05ZM134.715 71.235L134.284 70.9818L134.283 70.9839L134.715 71.235ZM139.17 66.78L138.922 66.3459L138.919 66.3476L139.17 66.78ZM151.95 66.825L151.697 67.2562L151.702 67.2591L151.95 66.825ZM156.405 71.28L155.971 71.5281L155.974 71.5332L156.405 71.28ZM156.45 84.105L156.016 83.8569L156.013 83.8622L156.45 84.105ZM152.13 88.605L152.384 89.0356L152.389 89.0325L152.13 88.605ZM140.43 88.965L140.193 89.4056L140.203 89.4106L140.43 88.965ZM136.515 85.545L136.924 85.2577L136.015 83.9628V85.545H136.515ZM136.02 100.035L135.684 99.665L135.666 99.681L135.65 99.6987L136.02 100.035ZM150.195 85.86L149.942 85.4288L150.195 85.86ZM153.435 82.53L152.999 82.2849L152.997 82.288L153.435 82.53ZM153.435 72.9L152.997 73.1421L153.001 73.1491L153.435 72.9ZM150.195 69.57L149.935 69.9972L149.942 70.0012L150.195 69.57ZM140.88 69.57L141.133 70.0013L141.14 69.9971L140.88 69.57ZM137.64 72.9L137.202 72.658L137.64 72.9ZM137.64 82.53L137.2 82.7682L137.202 82.772L137.64 82.53ZM140.88 85.86L140.627 86.2912L140.88 85.86ZM134.805 100.03C134.375 100.03 134.075 99.9029 133.854 99.6814L133.146 100.389C133.585 100.827 134.155 101.03 134.805 101.03V100.03ZM133.854 99.6814C133.671 99.499 133.55 99.2204 133.55 98.775H132.55C132.55 99.4096 132.729 99.971 133.146 100.389L133.854 99.6814ZM133.55 98.775V77.535H132.55V98.775H133.55ZM133.55 77.5414C133.579 75.2796 134.114 73.2652 135.147 71.4861L134.283 70.9839C133.156 72.9248 132.581 75.1104 132.55 77.5286L133.55 77.5414ZM135.146 71.4882C136.213 69.671 137.637 68.2483 139.421 67.2124L138.919 66.3476C136.983 67.4717 135.437 69.019 134.284 70.9818L135.146 71.4882ZM139.418 67.2141C141.227 66.1805 143.255 65.66 145.515 65.66V64.66C143.095 64.66 140.893 65.2195 138.922 66.3459L139.418 67.2141ZM145.515 65.66C147.835 65.66 149.891 66.1954 151.697 67.2561L152.203 66.3939C150.229 65.2346 147.995 64.66 145.515 64.66V65.66ZM151.702 67.2591C153.514 68.2948 154.935 69.7156 155.971 71.5281L156.839 71.0319C155.715 69.0644 154.166 67.5152 152.198 66.3909L151.702 67.2591ZM155.974 71.5332C157.035 73.3393 157.57 75.3953 157.57 77.715H158.57C158.57 75.2347 157.995 73.0007 156.836 71.0268L155.974 71.5332ZM157.57 77.715C157.57 80.0059 157.049 82.0491 156.016 83.8569L156.884 84.3531C158.011 82.3809 158.57 80.1641 158.57 77.715H157.57ZM156.013 83.8622C155.005 85.677 153.626 87.113 151.871 88.1775L152.389 89.0325C154.294 87.877 155.795 86.313 156.887 84.3478L156.013 83.8622ZM151.876 88.1744C150.129 89.205 148.149 89.725 145.92 89.725V90.725C148.311 90.725 150.471 90.165 152.384 89.0356L151.876 88.1744ZM145.92 89.725C143.982 89.725 142.231 89.3206 140.657 88.5194L140.203 89.4106C141.929 90.2894 143.838 90.725 145.92 90.725V89.725ZM140.667 88.5245C139.111 87.6889 137.866 86.5996 136.924 85.2577L136.106 85.8323C137.144 87.3104 138.509 88.5011 140.193 89.4055L140.667 88.5245ZM136.015 85.545V98.775H137.015V85.545H136.015ZM136.015 98.775C136.015 99.2063 135.888 99.4795 135.684 99.665L136.356 100.405C136.812 99.9905 137.015 99.4237 137.015 98.775H136.015ZM135.65 99.6987C135.459 99.909 135.196 100.03 134.805 100.03V101.03C135.434 101.03 135.981 100.821 136.39 100.371L135.65 99.6987ZM145.515 87.575C147.336 87.575 148.985 87.1501 150.448 86.2912L149.942 85.4288C148.645 86.1898 147.174 86.575 145.515 86.575V87.575ZM150.448 86.2912C151.906 85.4355 153.049 84.2599 153.873 82.772L152.997 82.288C152.261 83.6201 151.244 84.6645 149.942 85.4288L150.448 86.2912ZM153.871 82.7751C154.726 81.255 155.15 79.5645 155.15 77.715H154.15C154.15 79.4055 153.764 80.925 152.999 82.2849L153.871 82.7751ZM155.15 77.715C155.15 75.8372 154.727 74.1446 153.869 72.6509L153.001 73.1491C153.763 74.4754 154.15 75.9928 154.15 77.715H155.15ZM153.873 72.658C153.049 71.1701 151.906 69.9945 150.448 69.1388L149.942 70.0012C151.244 70.7655 152.261 71.8099 152.997 73.142L153.873 72.658ZM150.455 69.1429C148.991 68.2515 147.339 67.81 145.515 67.81V68.81C147.171 68.81 148.639 69.2085 149.935 69.9971L150.455 69.1429ZM145.515 67.81C143.719 67.81 142.083 68.2524 140.62 69.1429L141.14 69.9971C142.437 69.2076 143.891 68.81 145.515 68.81V67.81ZM140.627 69.1388C139.169 69.9945 138.026 71.1701 137.202 72.658L138.078 73.142C138.814 71.8099 139.831 70.7655 141.133 70.0012L140.627 69.1388ZM137.202 72.658C136.377 74.1504 135.97 75.8404 135.97 77.715H136.97C136.97 75.9896 137.343 74.4696 138.078 73.142L137.202 72.658ZM135.97 77.715C135.97 79.5613 136.378 81.2492 137.2 82.7681L138.08 82.2919C137.342 80.9308 136.97 79.4087 136.97 77.715H135.97ZM137.202 82.772C138.026 84.2599 139.169 85.4355 140.627 86.2912L141.133 85.4288C139.831 84.6645 138.814 83.6201 138.078 82.288L137.202 82.772ZM140.627 86.2912C142.089 87.1494 143.722 87.575 145.515 87.575V86.575C143.888 86.575 142.431 86.1906 141.133 85.4288L140.627 86.2912ZM165.316 89.55L164.946 89.8863L164.962 89.904L164.98 89.92L165.316 89.55ZM165.316 65.88L165.67 66.2336L165.316 65.88ZM167.836 65.88L167.466 66.2163L167.482 66.234L167.5 66.25L167.836 65.88ZM168.331 68.67H167.831V70.0125L168.71 68.9971L168.331 68.67ZM171.886 66.06L171.686 65.6019L171.682 65.6035L171.886 66.06ZM182.236 66.465L182 66.9058L182.006 66.909L182.236 66.465ZM186.196 70.335L185.76 70.5798L185.764 70.5855L186.196 70.335ZM184.711 89.505L184.358 89.8586L184.711 89.505ZM181.876 70.425L181.546 70.8L181.553 70.8067L181.876 70.425ZM172.156 69.255L171.942 68.8033L171.937 68.8055L172.156 69.255ZM169.366 71.595L169.777 71.8809L169.366 71.595ZM167.836 89.55L167.483 89.1964L167.836 89.55ZM165.316 79.47L164.946 79.8063L164.954 79.8151L164.963 79.8236L165.316 79.47ZM165.316 55.35L164.963 54.9964V54.9964L165.316 55.35ZM167.836 55.35L167.466 55.6863L167.482 55.704L167.5 55.72L167.836 55.35ZM167.836 79.47L167.483 79.1164L167.474 79.1249L167.466 79.1337L167.836 79.47ZM166.621 89.5C166.178 89.5 165.872 89.3795 165.653 89.18L164.98 89.92C165.421 90.3205 165.985 90.5 166.621 90.5V89.5ZM165.686 89.2137C165.482 88.9889 165.366 88.6947 165.366 88.29H164.366C164.366 88.9053 164.551 89.4511 164.946 89.8863L165.686 89.2137ZM165.366 88.29V67.14H164.366V88.29H165.366ZM165.366 67.14C165.366 66.6946 165.488 66.416 165.67 66.2336L164.963 65.5264C164.545 65.944 164.366 66.5054 164.366 67.14H165.366ZM165.67 66.2336C165.891 66.0121 166.191 65.885 166.621 65.885V64.885C165.971 64.885 165.401 65.0879 164.963 65.5264L165.67 66.2336ZM166.621 65.885C167.013 65.885 167.275 66.006 167.466 66.2163L168.206 65.5437C167.798 65.094 167.25 64.885 166.621 64.885V65.885ZM167.5 66.25C167.704 66.4355 167.831 66.7087 167.831 67.14H168.831C168.831 66.4913 168.629 65.9245 168.173 65.51L167.5 66.25ZM167.831 67.14V68.67H168.831V67.14H167.831ZM168.71 68.9971C169.619 67.9453 170.744 67.1182 172.09 66.5165L171.682 65.6035C170.209 66.2618 168.964 67.1747 167.953 68.3429L168.71 68.9971ZM172.087 66.5181C173.46 65.9171 174.937 65.615 176.521 65.615V64.615C174.806 64.615 173.192 64.9429 171.686 65.6019L172.087 66.5181ZM176.521 65.615C178.579 65.615 180.401 66.049 182 66.9057L182.473 66.0243C180.712 65.081 178.724 64.615 176.521 64.615V65.615ZM182.006 66.909C183.597 67.7324 184.846 68.9516 185.76 70.5798L186.632 70.0902C185.626 68.2984 184.236 66.9376 182.466 66.021L182.006 66.909ZM185.764 70.5855C186.7 72.2028 187.181 74.1966 187.181 76.59H188.181C188.181 74.0634 187.673 71.8872 186.629 70.0845L185.764 70.5855ZM187.181 76.59V88.29H188.181V76.59H187.181ZM187.181 88.29C187.181 88.6416 187.066 88.9182 186.833 89.1514L187.54 89.8586C187.967 89.4318 188.181 88.8984 188.181 88.29H187.181ZM186.833 89.1514C186.6 89.3847 186.323 89.5 185.971 89.5V90.5C186.58 90.5 187.113 90.2853 187.54 89.8586L186.833 89.1514ZM185.971 89.5C185.58 89.5 185.292 89.3785 185.065 89.1514L184.358 89.8586C184.791 90.2915 185.342 90.5 185.971 90.5V89.5ZM185.065 89.1514C184.832 88.9182 184.716 88.6416 184.716 88.29H183.716C183.716 88.8984 183.931 89.4318 184.358 89.8586L185.065 89.1514ZM184.716 88.29V76.59H183.716V88.29H184.716ZM184.716 76.59C184.716 73.7095 183.909 71.4896 182.199 70.0433L181.553 70.8067C182.964 72.0004 183.716 73.8905 183.716 76.59H184.716ZM182.207 70.0501C180.575 68.6099 178.548 67.9 176.161 67.9V68.9C178.335 68.9 180.118 69.5401 181.546 70.7999L182.207 70.0501ZM176.161 67.9C174.625 67.9 173.216 68.1983 171.942 68.8034L172.371 69.7066C173.497 69.1717 174.758 68.9 176.161 68.9V67.9ZM171.937 68.8055C170.697 69.4098 169.699 70.2437 168.956 71.3091L169.777 71.8809C170.414 70.9663 171.276 70.2402 172.375 69.7045L171.937 68.8055ZM168.956 71.3091C168.205 72.3868 167.831 73.6126 167.831 74.97H168.831C168.831 73.8074 169.148 72.7832 169.777 71.8809L168.956 71.3091ZM167.831 74.97V88.29H168.831V74.97H167.831ZM167.831 88.29C167.831 88.6809 167.71 88.9694 167.483 89.1964L168.19 89.9036C168.623 89.4706 168.831 88.9191 168.831 88.29H167.831ZM167.483 89.1964C167.295 89.3842 167.027 89.5 166.621 89.5V90.5C167.235 90.5 167.778 90.3158 168.19 89.9036L167.483 89.1964ZM166.621 79.465C166.191 79.465 165.891 79.3379 165.67 79.1164L164.963 79.8236C165.401 80.2621 165.971 80.465 166.621 80.465V79.465ZM165.686 79.1337C165.482 78.9089 165.366 78.6147 165.366 78.21H164.366C164.366 78.8253 164.551 79.3711 164.946 79.8063L165.686 79.1337ZM165.366 78.21V56.61H164.366V78.21H165.366ZM165.366 56.61C165.366 56.1646 165.488 55.886 165.67 55.7036L164.963 54.9964C164.545 55.414 164.366 55.9754 164.366 56.61H165.366ZM165.67 55.7036C165.891 55.4821 166.191 55.355 166.621 55.355V54.355C165.971 54.355 165.401 54.5579 164.963 54.9964L165.67 55.7036ZM166.621 55.355C167.013 55.355 167.275 55.476 167.466 55.6863L168.206 55.0137C167.798 54.564 167.25 54.355 166.621 54.355V55.355ZM167.5 55.72C167.704 55.9055 167.831 56.1787 167.831 56.61H168.831C168.831 55.9613 168.629 55.3945 168.173 54.98L167.5 55.72ZM167.831 56.61V78.21H168.831V56.61H167.831ZM167.831 78.21C167.831 78.6009 167.71 78.8894 167.483 79.1164L168.19 79.8236C168.623 79.3906 168.831 78.8391 168.831 78.21H167.831ZM167.466 79.1337C167.275 79.344 167.013 79.465 166.621 79.465V80.465C167.25 80.465 167.798 80.256 168.206 79.8063L167.466 79.1337ZM196.491 89.55L196.121 89.8863L196.137 89.904L196.154 89.92L196.491 89.55ZM196.491 65.88L196.844 66.2336L196.491 65.88ZM199.011 65.88L198.641 66.2163L198.657 66.234L198.674 66.25L199.011 65.88ZM199.011 89.55L198.657 89.1964L199.011 89.55ZM196.041 59.985L196.394 59.6314L196.041 59.985ZM196.041 56.475L196.37 56.8513L196.371 56.8499L196.041 56.475ZM199.461 56.475L199.119 56.8398L199.13 56.8508L199.143 56.861L199.461 56.475ZM199.506 59.985L199.152 59.6314L199.506 59.985ZM197.796 89.5C197.352 89.5 197.046 89.3795 196.827 89.18L196.154 89.92C196.595 90.3205 197.159 90.5 197.796 90.5V89.5ZM196.86 89.2137C196.661 88.9943 196.541 88.6882 196.541 88.245H195.541C195.541 88.8818 195.72 89.4457 196.121 89.8863L196.86 89.2137ZM196.541 88.245V67.14H195.541V88.245H196.541ZM196.541 67.14C196.541 66.6946 196.662 66.416 196.844 66.2336L196.137 65.5264C195.719 65.944 195.541 66.5054 195.541 67.14H196.541ZM196.844 66.2336C197.065 66.0121 197.366 65.885 197.796 65.885V64.885C197.145 64.885 196.576 65.0879 196.137 65.5264L196.844 66.2336ZM197.796 65.885C198.187 65.885 198.449 66.006 198.641 66.2163L199.38 65.5437C198.972 65.094 198.424 64.885 197.796 64.885V65.885ZM198.674 66.25C198.878 66.4355 199.006 66.7087 199.006 67.14H200.006C200.006 66.4913 199.803 65.9245 199.347 65.51L198.674 66.25ZM199.006 67.14V88.245H200.006V67.14H199.006ZM199.006 88.245C199.006 88.6749 198.878 88.975 198.657 89.1964L199.364 89.9036C199.803 89.465 200.006 88.8951 200.006 88.245H199.006ZM198.657 89.1964C198.469 89.3842 198.202 89.5 197.796 89.5V90.5C198.409 90.5 198.952 90.3158 199.364 89.9036L198.657 89.1964ZM197.751 60.205C197.227 60.205 196.783 60.0207 196.394 59.6314L195.687 60.3386C196.258 60.9093 196.954 61.205 197.751 61.205V60.205ZM196.394 59.6314C196.01 59.2469 195.821 58.7898 195.821 58.23H194.821C194.821 59.0502 195.111 59.7631 195.687 60.3386L196.394 59.6314ZM195.821 58.23C195.821 57.5963 196.018 57.1594 196.37 56.8513L195.711 56.0987C195.103 56.6306 194.821 57.3637 194.821 58.23H195.821ZM196.371 56.8499C196.793 56.4778 197.261 56.3 197.796 56.3V55.3C197.01 55.3 196.308 55.5722 195.71 56.1001L196.371 56.8499ZM197.796 56.3C198.292 56.3 198.727 56.4724 199.119 56.8398L199.802 56.1102C199.234 55.5776 198.559 55.3 197.796 55.3V56.3ZM199.143 56.861C199.521 57.1724 199.726 57.6067 199.726 58.23H200.726C200.726 57.3533 200.42 56.6176 199.778 56.089L199.143 56.861ZM199.726 58.23C199.726 58.7898 199.536 59.2469 199.152 59.6314L199.859 60.3386C200.435 59.7631 200.726 59.0502 200.726 58.23H199.726ZM199.152 59.6314C198.767 60.016 198.31 60.205 197.751 60.205V61.205C198.571 61.205 199.284 60.914 199.859 60.3386L199.152 59.6314ZM209.183 87.84L208.792 88.1514L208.795 88.1553L209.183 87.84ZM207.878 55.35L207.525 54.9964V54.9964L207.878 55.35ZM210.353 55.35L209.983 55.6863L209.999 55.704L210.017 55.72L210.353 55.35ZM211.613 85.365L211.19 85.6315L211.197 85.6423L211.613 85.365ZM215.843 87.075L215.456 87.3916L215.464 87.4007L215.472 87.4095L215.843 87.075ZM215.663 89.55L215.983 89.9341L215.986 89.9317L215.663 89.55ZM213.638 89.5C211.994 89.5 210.65 88.852 209.571 87.5247L208.795 88.1553C210.057 89.708 211.682 90.5 213.638 90.5V89.5ZM209.575 87.5286C208.489 86.1648 207.928 84.4068 207.928 82.215H206.928C206.928 84.5832 207.538 86.5752 208.792 88.1514L209.575 87.5286ZM207.928 82.215V56.565H206.928V82.215H207.928ZM207.928 56.565C207.928 56.1589 208.044 55.8913 208.232 55.7036L207.525 54.9964C207.113 55.4087 206.928 55.9511 206.928 56.565H207.928ZM208.232 55.7036C208.459 55.4765 208.747 55.355 209.138 55.355V54.355C208.509 54.355 207.958 54.5635 207.525 54.9964L208.232 55.7036ZM209.138 55.355C209.53 55.355 209.792 55.476 209.983 55.6863L210.723 55.0137C210.314 54.564 209.767 54.355 209.138 54.355V55.355ZM210.017 55.72C210.227 55.9112 210.348 56.1736 210.348 56.565H211.348C211.348 55.9364 211.139 55.3888 210.69 54.98L210.017 55.72ZM210.348 56.565V82.215H211.348V56.565H210.348ZM210.348 82.215C210.348 83.5675 210.615 84.7184 211.19 85.6314L212.036 85.0986C211.591 84.3916 211.348 83.4426 211.348 82.215H210.348ZM211.197 85.6423C211.809 86.5592 212.626 87.08 213.638 87.08V86.08C213.031 86.08 212.498 85.7908 212.029 85.0877L211.197 85.6423ZM213.638 87.08H214.763V86.08H213.638V87.08ZM214.763 87.08C215.073 87.08 215.287 87.1849 215.456 87.3916L216.23 86.7584C215.859 86.3051 215.354 86.08 214.763 86.08V87.08ZM215.472 87.4095C215.639 87.5954 215.748 87.8698 215.748 88.29H216.748C216.748 87.6902 216.588 87.1546 216.215 86.7405L215.472 87.4095ZM215.748 88.29C215.748 88.6526 215.618 88.9331 215.34 89.1683L215.986 89.9317C216.488 89.5069 216.748 88.9474 216.748 88.29H215.748ZM215.343 89.1659C215.096 89.3721 214.74 89.5 214.223 89.5V90.5C214.907 90.5 215.511 90.3279 215.983 89.9341L215.343 89.1659ZM214.223 89.5H213.638V90.5H214.223V89.5ZM221.884 87.84L221.492 88.1514L221.495 88.1553L221.884 87.84ZM220.579 55.35L220.225 54.9964V54.9964L220.579 55.35ZM223.054 55.35L222.684 55.6863L222.7 55.704L222.717 55.72L223.054 55.35ZM224.314 85.365L223.89 85.6315L223.897 85.6423L224.314 85.365ZM228.544 87.075L228.157 87.3916L228.164 87.4007L228.172 87.4095L228.544 87.075ZM228.364 89.55L228.684 89.9341L228.686 89.9317L228.364 89.55ZM226.339 89.5C224.694 89.5 223.35 88.852 222.272 87.5247L221.495 88.1553C222.757 89.708 224.383 90.5 226.339 90.5V89.5ZM222.275 87.5286C221.189 86.1648 220.629 84.4068 220.629 82.215H219.629C219.629 84.5832 220.238 86.5752 221.492 88.1514L222.275 87.5286ZM220.629 82.215V56.565H219.629V82.215H220.629ZM220.629 56.565C220.629 56.1589 220.744 55.8913 220.932 55.7036L220.225 54.9964C219.813 55.4087 219.629 55.9511 219.629 56.565H220.629ZM220.932 55.7036C221.159 55.4765 221.448 55.355 221.839 55.355V54.355C221.209 54.355 220.658 54.5635 220.225 54.9964L220.932 55.7036ZM221.839 55.355C222.23 55.355 222.492 55.476 222.684 55.6863L223.423 55.0137C223.015 54.564 222.467 54.355 221.839 54.355V55.355ZM222.717 55.72C222.928 55.9112 223.049 56.1736 223.049 56.565H224.049C224.049 55.9364 223.84 55.3888 223.39 54.98L222.717 55.72ZM223.049 56.565V82.215H224.049V56.565H223.049ZM223.049 82.215C223.049 83.5675 223.316 84.7184 223.89 85.6314L224.737 85.0986C224.291 84.3916 224.049 83.4426 224.049 82.215H223.049ZM223.897 85.6423C224.509 86.5592 225.326 87.08 226.339 87.08V86.08C225.731 86.08 225.198 85.7908 224.73 85.0877L223.897 85.6423ZM226.339 87.08H227.464V86.08H226.339V87.08ZM227.464 87.08C227.773 87.08 227.987 87.1849 228.157 87.3916L228.93 86.7584C228.56 86.3051 228.054 86.08 227.464 86.08V87.08ZM228.172 87.4095C228.339 87.5954 228.449 87.8698 228.449 88.29H229.449C229.449 87.6902 229.288 87.1546 228.915 86.7405L228.172 87.4095ZM228.449 88.29C228.449 88.6526 228.318 88.9331 228.041 89.1683L228.686 89.9317C229.189 89.5069 229.449 88.9474 229.449 88.29H228.449ZM228.043 89.1659C227.796 89.3721 227.44 89.5 226.924 89.5V90.5C227.607 90.5 228.211 90.3279 228.684 89.9341L228.043 89.1659ZM226.924 89.5H226.339V90.5H226.924V89.5ZM234.899 89.55L234.529 89.8863L234.545 89.904L234.562 89.92L234.899 89.55ZM234.899 65.88L235.252 66.2336L234.899 65.88ZM237.419 65.88L237.049 66.2163L237.065 66.234L237.082 66.25L237.419 65.88ZM237.419 89.55L237.065 89.1964L237.419 89.55ZM234.449 59.985L234.802 59.6314L234.449 59.985ZM234.449 56.475L234.778 56.8513L234.78 56.8499L234.449 56.475ZM237.869 56.475L237.527 56.8398L237.538 56.8508L237.551 56.861L237.869 56.475ZM237.914 59.985L237.56 59.6314L237.914 59.985ZM236.204 89.5C235.761 89.5 235.454 89.3795 235.235 89.18L234.562 89.92C235.003 90.3205 235.567 90.5 236.204 90.5V89.5ZM235.269 89.2137C235.069 88.9943 234.949 88.6882 234.949 88.245H233.949C233.949 88.8818 234.128 89.4457 234.529 89.8863L235.269 89.2137ZM234.949 88.245V67.14H233.949V88.245H234.949ZM234.949 67.14C234.949 66.6946 235.07 66.416 235.252 66.2336L234.545 65.5264C234.128 65.944 233.949 66.5054 233.949 67.14H234.949ZM235.252 66.2336C235.474 66.0121 235.774 65.885 236.204 65.885V64.885C235.554 64.885 234.984 65.0879 234.545 65.5264L235.252 66.2336ZM236.204 65.885C236.595 65.885 236.858 66.006 237.049 66.2163L237.789 65.5437C237.38 65.094 236.832 64.885 236.204 64.885V65.885ZM237.082 66.25C237.286 66.4355 237.414 66.7087 237.414 67.14H238.414C238.414 66.4913 238.211 65.9245 237.755 65.51L237.082 66.25ZM237.414 67.14V88.245H238.414V67.14H237.414ZM237.414 88.245C237.414 88.6749 237.287 88.975 237.065 89.1964L237.772 89.9036C238.211 89.465 238.414 88.8951 238.414 88.245H237.414ZM237.065 89.1964C236.877 89.3842 236.61 89.5 236.204 89.5V90.5C236.818 90.5 237.36 90.3158 237.772 89.9036L237.065 89.1964ZM236.159 60.205C235.635 60.205 235.191 60.0207 234.802 59.6314L234.095 60.3386C234.666 60.9093 235.362 61.205 236.159 61.205V60.205ZM234.802 59.6314C234.418 59.2469 234.229 58.7898 234.229 58.23H233.229C233.229 59.0502 233.52 59.7631 234.095 60.3386L234.802 59.6314ZM234.229 58.23C234.229 57.5963 234.426 57.1594 234.778 56.8513L234.119 56.0987C233.512 56.6306 233.229 57.3637 233.229 58.23H234.229ZM234.78 56.8499C235.201 56.4778 235.67 56.3 236.204 56.3V55.3C235.418 55.3 234.716 55.5722 234.118 56.1001L234.78 56.8499ZM236.204 56.3C236.701 56.3 237.135 56.4724 237.527 56.8398L238.211 56.1102C237.643 55.5776 236.967 55.3 236.204 55.3V56.3ZM237.551 56.861C237.929 57.1724 238.134 57.6067 238.134 58.23H239.134C239.134 57.3533 238.828 56.6176 238.187 56.089L237.551 56.861ZM238.134 58.23C238.134 58.7898 237.945 59.2469 237.56 59.6314L238.267 60.3386C238.843 59.7631 239.134 59.0502 239.134 58.23H238.134ZM237.56 59.6314C237.176 60.016 236.719 60.205 236.159 60.205V61.205C236.979 61.205 237.692 60.914 238.267 60.3386L237.56 59.6314ZM247.187 100.035L247.54 99.6814L247.187 100.035ZM246.737 77.535L246.237 77.5286V77.535H246.737ZM248.402 71.235L247.97 70.9818L247.969 70.9839L248.402 71.235ZM252.857 66.78L252.608 66.3459L252.605 66.3476L252.857 66.78ZM265.637 66.825L265.383 67.2562L265.388 67.2591L265.637 66.825ZM270.092 71.28L269.657 71.5281L269.66 71.5332L270.092 71.28ZM270.137 84.105L269.702 83.8569L269.699 83.8622L270.137 84.105ZM265.817 88.605L266.071 89.0356L266.076 89.0325L265.817 88.605ZM254.117 88.965L253.88 89.4056L253.89 89.4106L254.117 88.965ZM250.202 85.545L250.611 85.2577L249.702 83.9628V85.545H250.202ZM249.707 100.035L249.37 99.665L249.353 99.681L249.337 99.6987L249.707 100.035ZM263.882 85.86L263.628 85.4288L263.882 85.86ZM267.122 82.53L266.686 82.2849L266.684 82.288L267.122 82.53ZM267.122 72.9L266.684 73.1421L266.688 73.1491L267.122 72.9ZM263.882 69.57L263.622 69.9972L263.628 70.0012L263.882 69.57ZM254.567 69.57L254.82 70.0013L254.826 69.9971L254.567 69.57ZM251.327 72.9L250.889 72.658L251.327 72.9ZM251.327 82.53L250.887 82.7682L250.889 82.772L251.327 82.53ZM254.567 85.86L254.313 86.2912L254.567 85.86ZM248.492 100.03C248.062 100.03 247.761 99.9029 247.54 99.6814L246.833 100.389C247.272 100.827 247.841 101.03 248.492 101.03V100.03ZM247.54 99.6814C247.358 99.499 247.237 99.2204 247.237 98.775H246.237C246.237 99.4096 246.415 99.971 246.833 100.389L247.54 99.6814ZM247.237 98.775V77.535H246.237V98.775H247.237ZM247.236 77.5414C247.265 75.2796 247.801 73.2652 248.834 71.4861L247.969 70.9839C246.842 72.9248 246.268 75.1104 246.237 77.5286L247.236 77.5414ZM248.833 71.4882C249.9 69.671 251.324 68.2483 253.108 67.2124L252.605 66.3476C250.67 67.4717 249.123 69.019 247.97 70.9818L248.833 71.4882ZM253.105 67.2141C254.913 66.1805 256.942 65.66 259.202 65.66V64.66C256.781 64.66 254.58 65.2195 252.608 66.3459L253.105 67.2141ZM259.202 65.66C261.521 65.66 263.577 66.1954 265.383 67.2561L265.89 66.3939C263.916 65.2346 261.682 64.66 259.202 64.66V65.66ZM265.388 67.2591C267.201 68.2948 268.622 69.7156 269.657 71.5281L270.526 71.0319C269.401 69.0644 267.852 67.5152 265.885 66.3909L265.388 67.2591ZM269.66 71.5332C270.721 73.3393 271.257 75.3953 271.257 77.715H272.257C272.257 75.2347 271.682 73.0007 270.523 71.0268L269.66 71.5332ZM271.257 77.715C271.257 80.0059 270.735 82.0491 269.702 83.8569L270.571 84.3531C271.698 82.3809 272.257 80.1641 272.257 77.715H271.257ZM269.699 83.8622C268.691 85.677 267.312 87.113 265.557 88.1775L266.076 89.0325C267.981 87.877 269.482 86.313 270.574 84.3478L269.699 83.8622ZM265.562 88.1744C263.816 89.205 261.835 89.725 259.607 89.725V90.725C261.998 90.725 264.157 90.165 266.071 89.0356L265.562 88.1744ZM259.607 89.725C257.668 89.725 255.917 89.3206 254.343 88.5194L253.89 89.4106C255.616 90.2894 257.525 90.725 259.607 90.725V89.725ZM254.353 88.5245C252.797 87.6889 251.553 86.5996 250.611 85.2577L249.792 85.8323C250.83 87.3104 252.196 88.5011 253.88 89.4055L254.353 88.5245ZM249.702 85.545V98.775H250.702V85.545H249.702ZM249.702 98.775C249.702 99.2063 249.574 99.4795 249.37 99.665L250.043 100.405C250.499 99.9905 250.702 99.4237 250.702 98.775H249.702ZM249.337 99.6987C249.145 99.909 248.883 100.03 248.492 100.03V101.03C249.12 101.03 249.668 100.821 250.076 100.371L249.337 99.6987ZM259.202 87.575C261.022 87.575 262.671 87.1501 264.135 86.2912L263.628 85.4288C262.332 86.1898 260.861 86.575 259.202 86.575V87.575ZM264.135 86.2912C265.593 85.4355 266.736 84.2599 267.559 82.772L266.684 82.288C265.947 83.6201 264.931 84.6645 263.628 85.4288L264.135 86.2912ZM267.557 82.7751C268.412 81.255 268.837 79.5645 268.837 77.715H267.837C267.837 79.4055 267.451 80.925 266.686 82.2849L267.557 82.7751ZM268.837 77.715C268.837 75.8372 268.413 74.1446 267.555 72.6509L266.688 73.1491C267.45 74.4754 267.837 75.9928 267.837 77.715H268.837ZM267.559 72.658C266.736 71.1701 265.593 69.9945 264.135 69.1388L263.628 70.0012C264.931 70.7655 265.947 71.8099 266.684 73.142L267.559 72.658ZM264.141 69.1429C262.677 68.2515 261.026 67.81 259.202 67.81V68.81C260.857 68.81 262.326 69.2085 263.622 69.9971L264.141 69.1429ZM259.202 67.81C257.405 67.81 255.77 68.2524 254.307 69.1429L254.826 69.9971C256.124 69.2076 257.578 68.81 259.202 68.81V67.81ZM254.313 69.1388C252.856 69.9945 251.712 71.1701 250.889 72.658L251.764 73.142C252.501 71.8099 253.518 70.7655 254.82 70.0012L254.313 69.1388ZM250.889 72.658C250.063 74.1504 249.657 75.8404 249.657 77.715H250.657C250.657 75.9896 251.03 74.4696 251.764 73.142L250.889 72.658ZM249.657 77.715C249.657 79.5613 250.064 81.2492 250.887 82.7681L251.766 82.2919C251.029 80.9308 250.657 79.4087 250.657 77.715H249.657ZM250.889 82.772C251.712 84.2599 252.856 85.4355 254.313 86.2912L254.82 85.4288C253.518 84.6645 252.501 83.6201 251.764 82.288L250.889 82.772ZM254.313 86.2912C255.775 87.1494 257.409 87.575 259.202 87.575V86.575C257.574 86.575 256.118 86.1906 254.82 85.4288L254.313 86.2912Z" fill="#013220"/>
<path d="M294.255 90C293.775 90 293.355 89.835 292.995 89.505C292.665 89.175 292.5 88.755 292.5 88.245V56.61C292.5 56.13 292.665 55.725 292.995 55.395C293.355 55.035 293.775 54.855 294.255 54.855C294.735 54.855 295.14 55.035 295.47 55.395C295.83 55.725 296.01 56.13 296.01 56.61V86.67H313.605C314.085 86.67 314.49 86.835 314.82 87.165C315.18 87.465 315.36 87.855 315.36 88.335C315.36 88.815 315.18 89.22 314.82 89.55C314.49 89.85 314.085 90 313.605 90H294.255ZM331.372 90.225C329.062 90.225 326.992 89.685 325.162 88.605C323.332 87.495 321.877 85.995 320.797 84.105C319.747 82.215 319.222 80.085 319.222 77.715C319.222 75.315 319.762 73.17 320.842 71.28C321.952 69.39 323.452 67.905 325.342 66.825C327.232 65.715 329.362 65.16 331.732 65.16C334.102 65.16 336.217 65.715 338.077 66.825C339.967 67.905 341.452 69.39 342.532 71.28C343.642 73.17 344.212 75.315 344.242 77.715V88.29C344.242 88.8 344.077 89.22 343.747 89.55C343.417 89.85 342.997 90 342.487 90C341.977 90 341.557 89.85 341.227 89.55C340.897 89.22 340.732 88.8 340.732 88.29V85.545C339.712 86.985 338.392 88.125 336.772 88.965C335.152 89.805 333.352 90.225 331.372 90.225ZM331.732 87.075C333.472 87.075 335.017 86.67 336.367 85.86C337.747 85.05 338.827 83.94 339.607 82.53C340.417 81.09 340.822 79.485 340.822 77.715C340.822 75.915 340.417 74.31 339.607 72.9C338.827 71.49 337.747 70.38 336.367 69.57C335.017 68.73 333.472 68.31 331.732 68.31C330.022 68.31 328.477 68.73 327.097 69.57C325.717 70.38 324.622 71.49 323.812 72.9C323.002 74.31 322.597 75.915 322.597 77.715C322.597 79.485 323.002 81.09 323.812 82.53C324.622 83.94 325.717 85.05 327.097 85.86C328.477 86.67 330.022 87.075 331.732 87.075ZM352.736 90C352.196 90 351.761 89.85 351.431 89.55C351.131 89.22 350.981 88.8 350.981 88.29V67.14C350.981 66.6 351.131 66.18 351.431 65.88C351.761 65.55 352.196 65.385 352.736 65.385C353.246 65.385 353.651 65.55 353.951 65.88C354.281 66.18 354.446 66.6 354.446 67.14V68.67C355.406 67.56 356.591 66.69 358.001 66.06C359.441 65.43 360.986 65.115 362.636 65.115C364.766 65.115 366.671 65.565 368.351 66.465C370.031 67.335 371.351 68.625 372.311 70.335C373.301 72.045 373.796 74.13 373.796 76.59V88.29C373.796 88.77 373.631 89.175 373.301 89.505C372.971 89.835 372.566 90 372.086 90C371.576 90 371.156 89.835 370.826 89.505C370.496 89.175 370.331 88.77 370.331 88.29V76.59C370.331 73.8 369.551 71.745 367.991 70.425C366.461 69.075 364.556 68.4 362.276 68.4C360.806 68.4 359.471 68.685 358.271 69.255C357.101 69.825 356.171 70.605 355.481 71.595C354.791 72.585 354.446 73.71 354.446 74.97V88.29C354.446 88.8 354.281 89.22 353.951 89.55C353.651 89.85 353.246 90 352.736 90ZM381.885 90C380.835 90 380.31 89.475 380.31 88.425C380.31 87.915 380.43 87.54 380.67 87.3L395.385 68.535H381.705C380.655 68.535 380.13 68.01 380.13 66.96C380.13 65.91 380.655 65.385 381.705 65.385H398.4C399.45 65.385 399.975 65.91 399.975 66.96C399.975 67.41 399.885 67.755 399.705 67.995L384.99 86.85H398.58C399.63 86.85 400.155 87.375 400.155 88.425C400.155 89.475 399.63 90 398.58 90H381.885ZM416.413 90.225C413.983 90.225 411.823 89.7 409.933 88.65C408.073 87.57 406.603 86.085 405.523 84.195C404.473 82.305 403.948 80.145 403.948 77.715C403.948 75.255 404.443 73.095 405.433 71.235C406.453 69.345 407.848 67.86 409.618 66.78C411.388 65.7 413.428 65.16 415.738 65.16C418.018 65.16 419.998 65.685 421.678 66.735C423.388 67.755 424.708 69.18 425.638 71.01C426.568 72.84 427.033 74.925 427.033 77.265C427.033 77.745 426.883 78.135 426.583 78.435C426.283 78.705 425.893 78.84 425.413 78.84H407.233C407.413 80.46 407.908 81.9 408.718 83.16C409.528 84.39 410.593 85.365 411.913 86.085C413.233 86.775 414.733 87.12 416.413 87.12C417.493 87.12 418.573 86.94 419.653 86.58C420.763 86.19 421.648 85.71 422.308 85.14C422.638 84.87 423.013 84.735 423.433 84.735C423.853 84.705 424.213 84.81 424.513 85.05C424.903 85.41 425.098 85.8 425.098 86.22C425.128 86.64 424.963 87 424.603 87.3C423.613 88.14 422.353 88.845 420.823 89.415C419.293 89.955 417.823 90.225 416.413 90.225ZM415.738 68.265C413.428 68.265 411.523 68.985 410.023 70.425C408.523 71.835 407.623 73.68 407.323 75.96H423.793C423.553 73.68 422.713 71.835 421.273 70.425C419.863 68.985 418.018 68.265 415.738 68.265ZM442.525 90C440.935 90 439.51 89.625 438.25 88.875C437.02 88.125 436.045 87.105 435.325 85.815C434.605 84.495 434.245 82.995 434.245 81.315V69.3H431.32C430.87 69.3 430.495 69.165 430.195 68.895C429.895 68.595 429.745 68.235 429.745 67.815C429.745 67.365 429.895 67.005 430.195 66.735C430.495 66.435 430.87 66.285 431.32 66.285H434.245V59.31C434.245 58.8 434.395 58.38 434.695 58.05C435.025 57.72 435.445 57.555 435.955 57.555C436.465 57.555 436.885 57.72 437.215 58.05C437.545 58.38 437.71 58.8 437.71 59.31V66.285H442.795C443.245 66.285 443.62 66.435 443.92 66.735C444.22 67.005 444.37 67.365 444.37 67.815C444.37 68.235 444.22 68.595 443.92 68.895C443.62 69.165 443.245 69.3 442.795 69.3H437.71V81.315C437.71 82.845 438.16 84.105 439.06 85.095C439.96 86.055 441.115 86.535 442.525 86.535H443.74C444.22 86.535 444.61 86.7 444.91 87.03C445.21 87.36 445.36 87.78 445.36 88.29C445.36 88.8 445.18 89.22 444.82 89.55C444.46 89.85 444.01 90 443.47 90H442.525ZM460.63 90C459.04 90 457.615 89.625 456.355 88.875C455.125 88.125 454.15 87.105 453.43 85.815C452.71 84.495 452.35 82.995 452.35 81.315V69.3H449.425C448.975 69.3 448.6 69.165 448.3 68.895C448 68.595 447.85 68.235 447.85 67.815C447.85 67.365 448 67.005 448.3 66.735C448.6 66.435 448.975 66.285 449.425 66.285H452.35V59.31C452.35 58.8 452.5 58.38 452.8 58.05C453.13 57.72 453.55 57.555 454.06 57.555C454.57 57.555 454.99 57.72 455.32 58.05C455.65 58.38 455.815 58.8 455.815 59.31V66.285H460.9C461.35 66.285 461.725 66.435 462.025 66.735C462.325 67.005 462.475 67.365 462.475 67.815C462.475 68.235 462.325 68.595 462.025 68.895C461.725 69.165 461.35 69.3 460.9 69.3H455.815V81.315C455.815 82.845 456.265 84.105 457.165 85.095C458.065 86.055 459.22 86.535 460.63 86.535H461.845C462.325 86.535 462.715 86.7 463.015 87.03C463.315 87.36 463.465 87.78 463.465 88.29C463.465 88.8 463.285 89.22 462.925 89.55C462.565 89.85 462.115 90 461.575 90H460.63ZM479.951 90.225C477.641 90.225 475.571 89.685 473.741 88.605C471.911 87.495 470.456 85.995 469.376 84.105C468.326 82.215 467.801 80.085 467.801 77.715C467.801 75.315 468.341 73.17 469.421 71.28C470.531 69.39 472.031 67.905 473.921 66.825C475.811 65.715 477.941 65.16 480.311 65.16C482.681 65.16 484.796 65.715 486.656 66.825C488.546 67.905 490.031 69.39 491.111 71.28C492.221 73.17 492.791 75.315 492.821 77.715V88.29C492.821 88.8 492.656 89.22 492.326 89.55C491.996 89.85 491.576 90 491.066 90C490.556 90 490.136 89.85 489.806 89.55C489.476 89.22 489.311 88.8 489.311 88.29V85.545C488.291 86.985 486.971 88.125 485.351 88.965C483.731 89.805 481.931 90.225 479.951 90.225ZM480.311 87.075C482.051 87.075 483.596 86.67 484.946 85.86C486.326 85.05 487.406 83.94 488.186 82.53C488.996 81.09 489.401 79.485 489.401 77.715C489.401 75.915 488.996 74.31 488.186 72.9C487.406 71.49 486.326 70.38 484.946 69.57C483.596 68.73 482.051 68.31 480.311 68.31C478.601 68.31 477.056 68.73 475.676 69.57C474.296 70.38 473.201 71.49 472.391 72.9C471.581 74.31 471.176 75.915 471.176 77.715C471.176 79.485 471.581 81.09 472.391 82.53C473.201 83.94 474.296 85.05 475.676 85.86C477.056 86.67 478.601 87.075 480.311 87.075Z" fill="#013220"/>
<path d="M292.995 89.505L292.641 89.8586L292.649 89.8662L292.657 89.8736L292.995 89.505ZM292.995 55.395L292.641 55.0414L292.641 55.0414L292.995 55.395ZM295.47 55.395L295.101 55.7329L295.116 55.7489L295.132 55.7636L295.47 55.395ZM296.01 86.67H295.51V87.17H296.01V86.67ZM314.82 87.165L314.466 87.5186L314.482 87.5346L314.5 87.5491L314.82 87.165ZM314.82 89.55L315.156 89.92L315.158 89.9186L314.82 89.55ZM294.255 89.5C293.902 89.5 293.602 89.3835 293.333 89.1364L292.657 89.8736C293.108 90.2865 293.648 90.5 294.255 90.5V89.5ZM293.349 89.1514C293.121 88.9244 293 88.6359 293 88.245H292C292 88.8741 292.209 89.4256 292.641 89.8586L293.349 89.1514ZM293 88.245V56.61H292V88.245H293ZM293 56.61C293 56.2584 293.115 55.9818 293.349 55.7486L292.641 55.0414C292.215 55.4682 292 56.0016 292 56.61H293ZM293.349 55.7486C293.621 55.476 293.916 55.355 294.255 55.355V54.355C293.634 54.355 293.089 54.594 292.641 55.0414L293.349 55.7486ZM294.255 55.355C294.592 55.355 294.864 55.4741 295.101 55.7329L295.839 55.0571C295.416 54.5959 294.878 54.355 294.255 54.355V55.355ZM295.132 55.7636C295.391 56.0007 295.51 56.2729 295.51 56.61H296.51C296.51 55.9871 296.269 55.4492 295.808 55.0264L295.132 55.7636ZM295.51 56.61V86.67H296.51V56.61H295.51ZM296.01 87.17H313.605V86.17H296.01V87.17ZM313.605 87.17C313.957 87.17 314.233 87.2853 314.466 87.5186L315.174 86.8114C314.747 86.3847 314.213 86.17 313.605 86.17V87.17ZM314.5 87.5491C314.743 87.7515 314.86 87.9992 314.86 88.335H315.86C315.86 87.7108 315.617 87.1785 315.14 86.7809L314.5 87.5491ZM314.86 88.335C314.86 88.6721 314.741 88.9442 314.482 89.1814L315.158 89.9186C315.619 89.4958 315.86 88.9579 315.86 88.335H314.86ZM314.484 89.18C314.253 89.3897 313.971 89.5 313.605 89.5V90.5C314.199 90.5 314.727 90.3103 315.156 89.92L314.484 89.18ZM313.605 89.5H294.255V90.5H313.605V89.5ZM325.162 88.605L324.902 89.0325L324.907 89.0356L325.162 88.605ZM320.797 84.105L320.359 84.3478L320.362 84.3531L320.797 84.105ZM320.842 71.28L320.41 71.0268L320.407 71.0319L320.842 71.28ZM325.342 66.825L325.59 67.2591L325.595 67.2561L325.342 66.825ZM338.077 66.825L337.82 67.2544L337.828 67.2591L338.077 66.825ZM342.532 71.28L342.097 71.5281L342.1 71.5332L342.532 71.28ZM344.242 77.715H344.742L344.742 77.7087L344.242 77.715ZM343.747 89.55L344.083 89.92L344.092 89.912L344.1 89.9036L343.747 89.55ZM341.227 89.55L340.873 89.9036L340.881 89.912L340.89 89.92L341.227 89.55ZM340.732 85.545H341.232V83.9741L340.324 85.256L340.732 85.545ZM336.772 88.965L337.002 89.4089L336.772 88.965ZM336.367 85.86L336.113 85.4288L336.109 85.4313L336.367 85.86ZM339.607 82.53L339.171 82.2849L339.169 82.288L339.607 82.53ZM339.607 72.9L339.169 73.1421L339.173 73.1491L339.607 72.9ZM336.367 69.57L336.102 69.9947L336.113 70.0012L336.367 69.57ZM327.097 69.57L327.35 70.0013L327.357 69.9971L327.097 69.57ZM323.812 72.9L323.378 72.6509L323.812 72.9ZM323.812 82.53L323.376 82.7751L323.378 82.7791L323.812 82.53ZM327.097 85.86L327.35 85.4288L327.097 85.86ZM331.372 89.725C329.143 89.725 327.162 89.205 325.416 88.1744L324.907 89.0356C326.821 90.165 328.98 90.725 331.372 90.725V89.725ZM325.421 88.1775C323.665 87.1123 322.269 85.6746 321.231 83.8569L320.362 84.3531C321.484 86.3154 322.998 87.8777 324.902 89.0325L325.421 88.1775ZM321.234 83.8622C320.229 82.0534 319.722 80.0084 319.722 77.715H318.722C318.722 80.1616 319.264 82.3765 320.359 84.3478L321.234 83.8622ZM319.722 77.715C319.722 75.3929 320.243 73.335 321.276 71.5281L320.407 71.0319C319.28 73.005 318.722 75.2371 318.722 77.715H319.722ZM321.273 71.5332C322.339 69.7179 323.776 68.2955 325.59 67.2591L325.093 66.3909C323.127 67.5145 321.564 69.0621 320.41 71.0268L321.273 71.5332ZM325.595 67.2561C327.402 66.1949 329.443 65.66 331.732 65.66V64.66C329.28 64.66 327.061 65.2351 325.088 66.3939L325.595 67.2561ZM331.732 65.66C334.02 65.66 336.045 66.1949 337.82 67.2544L338.333 66.3956C336.388 65.2351 334.183 64.66 331.732 64.66V65.66ZM337.828 67.2591C339.641 68.2948 341.062 69.7156 342.097 71.5281L342.966 71.0319C341.841 69.0644 340.292 67.5152 338.325 66.3909L337.828 67.2591ZM342.1 71.5332C343.162 73.3413 343.713 75.3997 343.742 77.7212L344.742 77.7087C344.711 75.2303 344.121 72.9987 342.963 71.0268L342.1 71.5332ZM343.742 77.715V88.29H344.742V77.715H343.742ZM343.742 88.29C343.742 88.6809 343.62 88.9694 343.393 89.1964L344.1 89.9036C344.533 89.4706 344.742 88.9191 344.742 88.29H343.742ZM343.41 89.18C343.185 89.3843 342.891 89.5 342.487 89.5V90.5C343.102 90.5 343.648 90.3157 344.083 89.92L343.41 89.18ZM342.487 89.5C342.082 89.5 341.788 89.3843 341.563 89.18L340.89 89.92C341.325 90.3157 341.871 90.5 342.487 90.5V89.5ZM341.58 89.1964C341.353 88.9694 341.232 88.6809 341.232 88.29H340.232C340.232 88.9191 340.44 89.4706 340.873 89.9036L341.58 89.1964ZM341.232 88.29V85.545H340.232V88.29H341.232ZM340.324 85.256C339.351 86.6287 338.093 87.7165 336.541 88.5211L337.002 89.4089C338.69 88.5335 340.072 87.3413 341.14 85.834L340.324 85.256ZM336.541 88.5211C334.998 89.3212 333.278 89.725 331.372 89.725V90.725C333.425 90.725 335.305 90.2888 337.002 89.4089L336.541 88.5211ZM331.732 87.575C333.552 87.575 335.188 87.1502 336.624 86.2887L336.109 85.4313C334.845 86.1898 333.391 86.575 331.732 86.575V87.575ZM336.62 86.2912C338.078 85.4355 339.221 84.2599 340.044 82.772L339.169 82.288C338.432 83.6201 337.416 84.6645 336.113 85.4288L336.62 86.2912ZM340.042 82.7751C340.897 81.255 341.322 79.5645 341.322 77.715H340.322C340.322 79.4055 339.936 80.925 339.171 82.2849L340.042 82.7751ZM341.322 77.715C341.322 75.8372 340.898 74.1446 340.04 72.6509L339.173 73.1491C339.935 74.4754 340.322 75.9928 340.322 77.715H341.322ZM340.044 72.658C339.221 71.1701 338.078 69.9945 336.62 69.1388L336.113 70.0012C337.416 70.7655 338.432 71.8099 339.169 73.142L340.044 72.658ZM336.631 69.1455C335.194 68.2515 333.556 67.81 331.732 67.81V68.81C333.387 68.81 334.839 69.2085 336.102 69.9945L336.631 69.1455ZM331.732 67.81C329.935 67.81 328.3 68.2524 326.837 69.1429L327.357 69.9971C328.654 69.2076 330.108 68.81 331.732 68.81V67.81ZM326.843 69.1388C325.387 69.9935 324.231 71.1668 323.378 72.6509L324.245 73.1491C325.013 71.8131 326.046 70.7665 327.35 70.0012L326.843 69.1388ZM323.378 72.6509C322.52 74.1446 322.097 75.8372 322.097 77.715H323.097C323.097 75.9928 323.483 74.4754 324.245 73.1491L323.378 72.6509ZM322.097 77.715C322.097 79.5645 322.521 81.255 323.376 82.7751L324.247 82.2849C323.482 80.925 323.097 79.4055 323.097 77.715H322.097ZM323.378 82.7791C324.231 84.2631 325.387 85.4365 326.843 86.2912L327.35 85.4288C326.046 84.6635 325.013 83.6169 324.245 82.2809L323.378 82.7791ZM326.843 86.2912C328.305 87.1494 329.939 87.575 331.732 87.575V86.575C330.104 86.575 328.648 86.1906 327.35 85.4288L326.843 86.2912ZM351.431 89.55L351.061 89.8863L351.077 89.904L351.094 89.92L351.431 89.55ZM351.431 65.88L351.784 66.2336L351.431 65.88ZM353.951 65.88L353.581 66.2163L353.597 66.234L353.614 66.25L353.951 65.88ZM354.446 68.67H353.946V70.0125L354.824 68.9971L354.446 68.67ZM358.001 66.06L357.8 65.6019L357.797 65.6035L358.001 66.06ZM368.351 66.465L368.115 66.9058L368.121 66.909L368.351 66.465ZM372.311 70.335L371.875 70.5798L371.878 70.5855L372.311 70.335ZM370.826 89.505L370.472 89.8586L370.826 89.505ZM367.991 70.425L367.66 70.8L367.668 70.8067L367.991 70.425ZM358.271 69.255L358.056 68.8033L358.052 68.8055L358.271 69.255ZM355.481 71.595L355.891 71.8809L355.481 71.595ZM353.951 89.55L353.597 89.1964H353.597L353.951 89.55ZM352.736 89.5C352.292 89.5 351.986 89.3795 351.767 89.18L351.094 89.92C351.535 90.3205 352.099 90.5 352.736 90.5V89.5ZM351.801 89.2137C351.596 88.9889 351.481 88.6947 351.481 88.29H350.481C350.481 88.9053 350.665 89.4511 351.061 89.8863L351.801 89.2137ZM351.481 88.29V67.14H350.481V88.29H351.481ZM351.481 67.14C351.481 66.6946 351.602 66.416 351.784 66.2336L351.077 65.5264C350.66 65.944 350.481 66.5054 350.481 67.14H351.481ZM351.784 66.2336C352.006 66.0121 352.306 65.885 352.736 65.885V64.885C352.086 64.885 351.516 65.0879 351.077 65.5264L351.784 66.2336ZM352.736 65.885C353.127 65.885 353.389 66.006 353.581 66.2163L354.321 65.5437C353.912 65.094 353.364 64.885 352.736 64.885V65.885ZM353.614 66.25C353.818 66.4355 353.946 66.7087 353.946 67.14H354.946C354.946 66.4913 354.743 65.9245 354.287 65.51L353.614 66.25ZM353.946 67.14V68.67H354.946V67.14H353.946ZM354.824 68.9971C355.733 67.9453 356.858 67.1182 358.205 66.5165L357.797 65.6035C356.323 66.2618 355.078 67.1747 354.067 68.3429L354.824 68.9971ZM358.201 66.5181C359.575 65.9171 361.051 65.615 362.636 65.615V64.615C360.92 64.615 359.307 64.9429 357.8 65.6019L358.201 66.5181ZM362.636 65.615C364.693 65.615 366.515 66.049 368.115 66.9057L368.587 66.0243C366.826 65.081 364.838 64.615 362.636 64.615V65.615ZM368.121 66.909C369.711 67.7324 370.961 68.9516 371.875 70.5798L372.747 70.0902C371.741 68.2984 370.351 66.9376 368.581 66.021L368.121 66.909ZM371.878 70.5855C372.814 72.2028 373.296 74.1966 373.296 76.59H374.296C374.296 74.0634 373.787 71.8872 372.743 70.0845L371.878 70.5855ZM373.296 76.59V88.29H374.296V76.59H373.296ZM373.296 88.29C373.296 88.6416 373.18 88.9182 372.947 89.1514L373.654 89.8586C374.081 89.4318 374.296 88.8984 374.296 88.29H373.296ZM372.947 89.1514C372.714 89.3847 372.437 89.5 372.086 89.5V90.5C372.694 90.5 373.228 90.2853 373.654 89.8586L372.947 89.1514ZM372.086 89.5C371.695 89.5 371.406 89.3785 371.179 89.1514L370.472 89.8586C370.905 90.2915 371.457 90.5 372.086 90.5V89.5ZM371.179 89.1514C370.946 88.9182 370.831 88.6416 370.831 88.29H369.831C369.831 88.8984 370.045 89.4318 370.472 89.8586L371.179 89.1514ZM370.831 88.29V76.59H369.831V88.29H370.831ZM370.831 76.59C370.831 73.7095 370.023 71.4896 368.314 70.0433L367.668 70.8067C369.078 72.0004 369.831 73.8905 369.831 76.59H370.831ZM368.321 70.0501C366.689 68.6099 364.662 67.9 362.276 67.9V68.9C364.449 68.9 366.232 69.5401 367.66 70.7999L368.321 70.0501ZM362.276 67.9C360.739 67.9 359.33 68.1983 358.056 68.8034L358.485 69.7066C359.611 69.1717 360.872 68.9 362.276 68.9V67.9ZM358.052 68.8055C356.811 69.4098 355.813 70.2437 355.07 71.3091L355.891 71.8809C356.528 70.9663 357.39 70.2402 358.49 69.7045L358.052 68.8055ZM355.07 71.3091C354.319 72.3868 353.946 73.6126 353.946 74.97H354.946C354.946 73.8074 355.262 72.7832 355.891 71.8809L355.07 71.3091ZM353.946 74.97V88.29H354.946V74.97H353.946ZM353.946 88.29C353.946 88.6809 353.824 88.9694 353.597 89.1964L354.304 89.9036C354.737 89.4706 354.946 88.9191 354.946 88.29H353.946ZM353.597 89.1964C353.409 89.3842 353.142 89.5 352.736 89.5V90.5C353.35 90.5 353.892 90.3158 354.304 89.9036L353.597 89.1964ZM380.67 87.3L381.023 87.6536L381.045 87.6322L381.063 87.6085L380.67 87.3ZM395.385 68.535L395.778 68.8435L396.412 68.035H395.385V68.535ZM399.705 67.995L400.099 68.3027L400.105 68.295L399.705 67.995ZM384.99 86.85L384.596 86.5424L383.965 87.35H384.99V86.85ZM381.885 89.5C381.437 89.5 381.193 89.3884 381.057 89.2527C380.921 89.117 380.81 88.8729 380.81 88.425H379.81C379.81 89.0271 379.961 89.5705 380.35 89.9598C380.739 90.3491 381.283 90.5 381.885 90.5V89.5ZM380.81 88.425C380.81 87.9818 380.915 87.7617 381.023 87.6536L380.316 86.9464C379.944 87.3183 379.81 87.8482 379.81 88.425H380.81ZM381.063 87.6085L395.778 68.8435L394.991 68.2265L380.276 86.9915L381.063 87.6085ZM395.385 68.035H381.705V69.035H395.385V68.035ZM381.705 68.035C381.257 68.035 381.013 67.9234 380.877 67.7877C380.741 67.652 380.63 67.4079 380.63 66.96H379.63C379.63 67.5621 379.781 68.1055 380.17 68.4948C380.559 68.8841 381.103 69.035 381.705 69.035V68.035ZM380.63 66.96C380.63 66.5121 380.741 66.268 380.877 66.1323C381.013 65.9966 381.257 65.885 381.705 65.885V64.885C381.103 64.885 380.559 65.0359 380.17 65.4252C379.781 65.8145 379.63 66.3579 379.63 66.96H380.63ZM381.705 65.885H398.4V64.885H381.705V65.885ZM398.4 65.885C398.848 65.885 399.092 65.9966 399.227 66.1323C399.363 66.268 399.475 66.5121 399.475 66.96H400.475C400.475 66.3579 400.324 65.8145 399.935 65.4252C399.545 65.0359 399.002 64.885 398.4 64.885V65.885ZM399.475 66.96C399.475 67.3532 399.395 67.5752 399.305 67.695L400.105 68.295C400.375 67.9348 400.475 67.4668 400.475 66.96H399.475ZM399.311 67.6874L384.596 86.5424L385.384 87.1576L400.099 68.3026L399.311 67.6874ZM384.99 87.35H398.58V86.35H384.99V87.35ZM398.58 87.35C399.028 87.35 399.272 87.4616 399.407 87.5973C399.543 87.733 399.655 87.9771 399.655 88.425H400.655C400.655 87.8229 400.504 87.2795 400.115 86.8902C399.725 86.5009 399.182 86.35 398.58 86.35V87.35ZM399.655 88.425C399.655 88.8729 399.543 89.117 399.407 89.2527C399.272 89.3884 399.028 89.5 398.58 89.5V90.5C399.182 90.5 399.725 90.3491 400.115 89.9598C400.504 89.5705 400.655 89.0271 400.655 88.425H399.655ZM398.58 89.5H381.885V90.5H398.58V89.5ZM409.933 88.65L409.682 89.0825L409.69 89.0871L409.933 88.65ZM405.523 84.195L405.086 84.4378L405.089 84.4431L405.523 84.195ZM405.433 71.235L404.993 70.9975L404.992 71.0001L405.433 71.235ZM421.678 66.735L421.413 67.1591L421.422 67.1644L421.678 66.735ZM425.638 71.01L426.084 70.7835L425.638 71.01ZM426.583 78.435L426.918 78.8066L426.927 78.7979L426.937 78.7886L426.583 78.435ZM407.233 78.84V78.34H406.674L406.736 78.8952L407.233 78.84ZM408.718 83.16L408.298 83.4304L408.301 83.435L408.718 83.16ZM411.913 86.085L411.674 86.524L411.681 86.5281L411.913 86.085ZM419.653 86.58L419.811 87.0544L419.819 87.0517L419.653 86.58ZM422.308 85.14L421.991 84.7529L421.981 84.7616L422.308 85.14ZM423.433 84.735V85.235H423.451L423.469 85.2337L423.433 84.735ZM424.513 85.05L424.852 84.6826L424.839 84.6706L424.825 84.6596L424.513 85.05ZM425.098 86.22H424.598V86.2378L424.599 86.2556L425.098 86.22ZM424.603 87.3L424.283 86.9159L424.28 86.9187L424.603 87.3ZM420.823 89.415L420.99 89.8866L420.998 89.8835L420.823 89.415ZM410.023 70.425L410.366 70.7893L410.369 70.7857L410.023 70.425ZM407.323 75.96L406.827 75.8948L406.753 76.46H407.323V75.96ZM423.793 75.96V76.46H424.349L424.29 75.9077L423.793 75.96ZM421.273 70.425L420.916 70.7749L420.923 70.7823L421.273 70.425ZM416.413 89.725C414.057 89.725 411.983 89.2167 410.176 88.2129L409.69 89.0871C411.663 90.1833 413.909 90.725 416.413 90.725V89.725ZM410.184 88.2176C408.401 87.1824 406.994 85.7614 405.957 83.9469L405.089 84.4431C406.212 86.4086 407.745 87.9576 409.682 89.0824L410.184 88.2176ZM405.96 83.9522C404.956 82.1453 404.448 80.0707 404.448 77.715H403.448C403.448 80.2193 403.99 82.4647 405.086 84.4378L405.96 83.9522ZM404.448 77.715C404.448 75.3232 404.929 73.2464 405.874 71.4699L404.992 71.0001C403.957 72.9436 403.448 75.1868 403.448 77.715H404.448ZM405.873 71.4725C406.853 69.6575 408.187 68.239 409.879 67.2068L409.358 66.3532C407.509 67.481 406.054 69.0325 404.993 70.9975L405.873 71.4725ZM409.879 67.2068C411.561 66.18 413.509 65.66 415.738 65.66V64.66C413.347 64.66 411.215 65.22 409.358 66.3532L409.879 67.2068ZM415.738 65.66C417.939 65.66 419.824 66.1658 421.413 67.159L421.943 66.311C420.172 65.2042 418.097 64.66 415.738 64.66V65.66ZM421.422 67.1644C423.048 68.1345 424.304 69.488 425.192 71.2365L426.084 70.7835C425.112 68.872 423.728 67.3755 421.934 66.3056L421.422 67.1644ZM425.192 71.2365C426.082 72.9871 426.533 74.9926 426.533 77.265H427.533C427.533 74.8574 427.054 72.6929 426.084 70.7835L425.192 71.2365ZM426.533 77.265C426.533 77.6314 426.423 77.8878 426.23 78.0814L426.937 78.7886C427.343 78.3822 427.533 77.8586 427.533 77.265H426.533ZM426.249 78.0634C426.057 78.2356 425.794 78.34 425.413 78.34V79.34C425.992 79.34 426.509 79.1744 426.918 78.8066L426.249 78.0634ZM425.413 78.34H407.233V79.34H425.413V78.34ZM406.736 78.8952C406.924 80.585 407.442 82.0999 408.298 83.4304L409.139 82.8896C408.374 81.7001 407.902 80.335 407.73 78.7848L406.736 78.8952ZM408.301 83.435C409.157 84.7349 410.283 85.7656 411.674 86.5239L412.153 85.6461C410.903 84.9644 409.9 84.0451 409.136 82.885L408.301 83.435ZM411.681 86.5281C413.082 87.26 414.663 87.62 416.413 87.62V86.62C414.803 86.62 413.385 86.29 412.145 85.6419L411.681 86.5281ZM416.413 87.62C417.55 87.62 418.683 87.4304 419.811 87.0543L419.495 86.1057C418.463 86.4496 417.437 86.62 416.413 86.62V87.62ZM419.819 87.0517C420.969 86.6478 421.914 86.1409 422.635 85.5184L421.981 84.7616C421.382 85.2791 420.558 85.7322 419.487 86.1083L419.819 87.0517ZM422.625 85.527C422.867 85.3289 423.13 85.235 423.433 85.235V84.235C422.896 84.235 422.409 84.4111 421.992 84.753L422.625 85.527ZM423.469 85.2337C423.776 85.2118 424.009 85.2869 424.201 85.4404L424.825 84.6596C424.417 84.3331 423.93 84.1982 423.398 84.2363L423.469 85.2337ZM424.174 85.4174C424.49 85.7094 424.598 85.9745 424.598 86.22H425.598C425.598 85.6255 425.316 85.1106 424.852 84.6826L424.174 85.4174ZM424.599 86.2556C424.617 86.4952 424.536 86.7054 424.283 86.9159L424.923 87.6841C425.391 87.2946 425.64 86.7848 425.597 86.1844L424.599 86.2556ZM424.28 86.9187C423.344 87.713 422.138 88.3917 420.649 88.9465L420.998 89.8835C422.569 89.2983 423.883 88.567 424.927 87.6813L424.28 86.9187ZM420.657 88.9435C419.172 89.4674 417.759 89.725 416.413 89.725V90.725C417.888 90.725 419.414 90.4426 420.99 89.8865L420.657 88.9435ZM415.738 67.765C413.315 67.765 411.281 68.5247 409.677 70.0643L410.369 70.7857C411.766 69.4453 413.542 68.765 415.738 68.765V67.765ZM409.681 70.0607C408.087 71.559 407.141 73.5146 406.827 75.8948L407.819 76.0252C408.106 73.8454 408.96 72.111 410.366 70.7893L409.681 70.0607ZM407.323 76.46H423.793V75.46H407.323V76.46ZM424.29 75.9077C424.04 73.5288 423.157 71.5702 421.623 70.0677L420.923 70.7823C422.269 72.0998 423.066 73.8312 423.296 76.0123L424.29 75.9077ZM421.63 70.0752C420.114 68.5262 418.133 67.765 415.738 67.765V68.765C417.903 68.765 419.613 69.4438 420.916 70.7748L421.63 70.0752ZM438.25 88.875L437.989 89.3019L437.994 89.3046L438.25 88.875ZM435.325 85.815L434.886 86.0544L434.888 86.0587L435.325 85.815ZM434.245 69.3H434.745V68.8H434.245V69.3ZM430.195 68.895L429.841 69.2486L429.85 69.2579L429.86 69.2666L430.195 68.895ZM430.195 66.735L430.529 67.1066L430.539 67.0979L430.548 67.0886L430.195 66.735ZM434.245 66.285V66.785H434.745V66.285H434.245ZM434.695 58.05L434.341 57.6964L434.333 57.7049L434.325 57.7137L434.695 58.05ZM437.215 58.05L436.861 58.4036L437.215 58.05ZM437.71 66.285H437.21V66.785H437.71V66.285ZM443.92 66.735L443.566 67.0886L443.575 67.0979L443.585 67.1066L443.92 66.735ZM443.92 68.895L444.254 69.2666L444.264 69.2579L444.273 69.2486L443.92 68.895ZM437.71 69.3V68.8H437.21V69.3H437.71ZM439.06 85.095L438.69 85.4314L438.695 85.437L439.06 85.095ZM444.91 87.03L445.28 86.6937L444.91 87.03ZM444.82 89.55L445.14 89.9341L445.149 89.9266L445.158 89.9186L444.82 89.55ZM442.525 89.5C441.017 89.5 439.682 89.1455 438.505 88.4454L437.994 89.3046C439.338 90.1045 440.853 90.5 442.525 90.5V89.5ZM438.51 88.4481C437.356 87.7441 436.44 86.7881 435.761 85.5713L434.888 86.0587C435.649 87.4219 436.684 88.5059 437.989 89.3019L438.51 88.4481ZM435.764 85.5756C435.088 84.3373 434.745 82.9213 434.745 81.315H433.745C433.745 83.0687 434.121 84.6527 434.886 86.0544L435.764 85.5756ZM434.745 81.315V69.3H433.745V81.315H434.745ZM434.245 68.8H431.32V69.8H434.245V68.8ZM431.32 68.8C430.978 68.8 430.727 68.701 430.529 68.5234L429.86 69.2666C430.263 69.629 430.762 69.8 431.32 69.8V68.8ZM430.548 68.5414C430.341 68.3341 430.245 68.1009 430.245 67.815H429.245C429.245 68.3691 429.448 68.8559 429.841 69.2486L430.548 68.5414ZM430.245 67.815C430.245 67.4886 430.347 67.2703 430.529 67.1066L429.86 66.3634C429.442 66.7397 429.245 67.2414 429.245 67.815H430.245ZM430.548 67.0886C430.748 66.8885 430.993 66.785 431.32 66.785V65.785C430.746 65.785 430.241 65.9815 429.841 66.3814L430.548 67.0886ZM431.32 66.785H434.245V65.785H431.32V66.785ZM434.745 66.285V59.31H433.745V66.285H434.745ZM434.745 59.31C434.745 58.9053 434.86 58.6111 435.065 58.3863L434.325 57.7137C433.929 58.1489 433.745 58.6947 433.745 59.31H434.745ZM435.048 58.4036C435.275 58.1765 435.564 58.055 435.955 58.055V57.055C435.326 57.055 434.774 57.2635 434.341 57.6964L435.048 58.4036ZM435.955 58.055C436.346 58.055 436.634 58.1765 436.861 58.4036L437.568 57.6964C437.135 57.2635 436.584 57.055 435.955 57.055V58.055ZM436.861 58.4036C437.088 58.6306 437.21 58.9191 437.21 59.31H438.21C438.21 58.6809 438.001 58.1294 437.568 57.6964L436.861 58.4036ZM437.21 59.31V66.285H438.21V59.31H437.21ZM437.71 66.785H442.795V65.785H437.71V66.785ZM442.795 66.785C443.121 66.785 443.366 66.8885 443.566 67.0886L444.273 66.3814C443.873 65.9815 443.368 65.785 442.795 65.785V66.785ZM443.585 67.1066C443.767 67.2703 443.87 67.4886 443.87 67.815H444.87C444.87 67.2414 444.672 66.7397 444.254 66.3634L443.585 67.1066ZM443.87 67.815C443.87 68.1009 443.773 68.3341 443.566 68.5414L444.273 69.2486C444.666 68.8559 444.87 68.3691 444.87 67.815H443.87ZM443.585 68.5234C443.388 68.701 443.137 68.8 442.795 68.8V69.8C443.353 69.8 443.852 69.629 444.254 69.2666L443.585 68.5234ZM442.795 68.8H437.71V69.8H442.795V68.8ZM437.21 69.3V81.315H438.21V69.3H437.21ZM437.21 81.315C437.21 82.9503 437.694 84.3361 438.69 85.4313L439.43 84.7587C438.625 83.8739 438.21 82.7397 438.21 81.315H437.21ZM438.695 85.437C439.697 86.5056 440.988 87.035 442.525 87.035V86.035C441.242 86.035 440.223 85.6044 439.424 84.753L438.695 85.437ZM442.525 87.035H443.74V86.035H442.525V87.035ZM443.74 87.035C444.091 87.035 444.342 87.1492 444.54 87.3663L445.28 86.6937C444.877 86.2508 444.349 86.035 443.74 86.035V87.035ZM444.54 87.3663C444.744 87.5911 444.86 87.8853 444.86 88.29H445.86C445.86 87.6747 445.675 87.1289 445.28 86.6937L444.54 87.3663ZM444.86 88.29C444.86 88.6669 444.733 88.9508 444.482 89.1814L445.158 89.9186C445.626 89.4892 445.86 88.9331 445.86 88.29H444.86ZM444.5 89.1659C444.243 89.3798 443.912 89.5 443.47 89.5V90.5C444.108 90.5 444.676 90.3202 445.14 89.9341L444.5 89.1659ZM443.47 89.5H442.525V90.5H443.47V89.5ZM456.355 88.875L456.095 89.3019L456.099 89.3046L456.355 88.875ZM453.43 85.815L452.991 86.0544L452.994 86.0587L453.43 85.815ZM452.35 69.3H452.85V68.8H452.35V69.3ZM448.3 68.895L447.947 69.2486L447.956 69.2579L447.966 69.2666L448.3 68.895ZM448.3 66.735L448.635 67.1066L448.644 67.0979L448.654 67.0886L448.3 66.735ZM452.35 66.285V66.785H452.85V66.285H452.35ZM452.8 58.05L452.447 57.6964L452.438 57.7049L452.43 57.7137L452.8 58.05ZM455.32 58.05L454.967 58.4036L455.32 58.05ZM455.815 66.285H455.315V66.785H455.815V66.285ZM462.025 66.735L461.672 67.0886L461.681 67.0979L461.691 67.1066L462.025 66.735ZM462.025 68.895L462.36 69.2666L462.369 69.2579L462.379 69.2486L462.025 68.895ZM455.815 69.3V68.8H455.315V69.3H455.815ZM457.165 85.095L456.795 85.4314L456.8 85.437L457.165 85.095ZM463.015 87.03L463.385 86.6937L463.015 87.03ZM462.925 89.55L463.245 89.9341L463.254 89.9266L463.263 89.9186L462.925 89.55ZM460.63 89.5C459.122 89.5 457.787 89.1455 456.611 88.4454L456.099 89.3046C457.443 90.1045 458.958 90.5 460.63 90.5V89.5ZM456.615 88.4481C455.461 87.7441 454.546 86.7881 453.867 85.5713L452.994 86.0587C453.754 87.4219 454.789 88.5059 456.095 89.3019L456.615 88.4481ZM453.869 85.5756C453.194 84.3373 452.85 82.9213 452.85 81.315H451.85C451.85 83.0687 452.227 84.6527 452.991 86.0544L453.869 85.5756ZM452.85 81.315V69.3H451.85V81.315H452.85ZM452.35 68.8H449.425V69.8H452.35V68.8ZM449.425 68.8C449.083 68.8 448.832 68.701 448.635 68.5234L447.966 69.2666C448.368 69.629 448.867 69.8 449.425 69.8V68.8ZM448.654 68.5414C448.446 68.3341 448.35 68.1009 448.35 67.815H447.35C447.35 68.3691 447.554 68.8559 447.947 69.2486L448.654 68.5414ZM448.35 67.815C448.35 67.4886 448.453 67.2703 448.635 67.1066L447.966 66.3634C447.548 66.7397 447.35 67.2414 447.35 67.815H448.35ZM448.654 67.0886C448.854 66.8885 449.099 66.785 449.425 66.785V65.785C448.852 65.785 448.347 65.9815 447.947 66.3814L448.654 67.0886ZM449.425 66.785H452.35V65.785H449.425V66.785ZM452.85 66.285V59.31H451.85V66.285H452.85ZM452.85 59.31C452.85 58.9053 452.966 58.6111 453.17 58.3863L452.43 57.7137C452.035 58.1489 451.85 58.6947 451.85 59.31H452.85ZM453.154 58.4036C453.381 58.1765 453.669 58.055 454.06 58.055V57.055C453.431 57.055 452.88 57.2635 452.447 57.6964L453.154 58.4036ZM454.06 58.055C454.451 58.055 454.74 58.1765 454.967 58.4036L455.674 57.6964C455.241 57.2635 454.689 57.055 454.06 57.055V58.055ZM454.967 58.4036C455.194 58.6306 455.315 58.9191 455.315 59.31H456.315C456.315 58.6809 456.107 58.1294 455.674 57.6964L454.967 58.4036ZM455.315 59.31V66.285H456.315V59.31H455.315ZM455.815 66.785H460.9V65.785H455.815V66.785ZM460.9 66.785C461.227 66.785 461.472 66.8885 461.672 67.0886L462.379 66.3814C461.979 65.9815 461.474 65.785 460.9 65.785V66.785ZM461.691 67.1066C461.873 67.2703 461.975 67.4886 461.975 67.815H462.975C462.975 67.2414 462.778 66.7397 462.36 66.3634L461.691 67.1066ZM461.975 67.815C461.975 68.1009 461.879 68.3341 461.672 68.5414L462.379 69.2486C462.771 68.8559 462.975 68.3691 462.975 67.815H461.975ZM461.691 68.5234C461.493 68.701 461.242 68.8 460.9 68.8V69.8C461.458 69.8 461.957 69.629 462.36 69.2666L461.691 68.5234ZM460.9 68.8H455.815V69.8H460.9V68.8ZM455.315 69.3V81.315H456.315V69.3H455.315ZM455.315 81.315C455.315 82.9503 455.8 84.3361 456.795 85.4313L457.535 84.7587C456.731 83.8739 456.315 82.7397 456.315 81.315H455.315ZM456.8 85.437C457.802 86.5056 459.093 87.035 460.63 87.035V86.035C459.347 86.035 458.328 85.6044 457.53 84.753L456.8 85.437ZM460.63 87.035H461.845V86.035H460.63V87.035ZM461.845 87.035C462.196 87.035 462.448 87.1492 462.645 87.3663L463.385 86.6937C462.983 86.2508 462.454 86.035 461.845 86.035V87.035ZM462.645 87.3663C462.85 87.5911 462.965 87.8853 462.965 88.29H463.965C463.965 87.6747 463.781 87.1289 463.385 86.6937L462.645 87.3663ZM462.965 88.29C462.965 88.6669 462.839 88.9508 462.587 89.1814L463.263 89.9186C463.731 89.4892 463.965 88.9331 463.965 88.29H462.965ZM462.605 89.1659C462.348 89.3798 462.017 89.5 461.575 89.5V90.5C462.213 90.5 462.782 90.3202 463.245 89.9341L462.605 89.1659ZM461.575 89.5H460.63V90.5H461.575V89.5ZM473.741 88.605L473.481 89.0325L473.487 89.0356L473.741 88.605ZM469.376 84.105L468.939 84.3478L468.942 84.3531L469.376 84.105ZM469.421 71.28L468.989 71.0268L468.987 71.0319L469.421 71.28ZM473.921 66.825L474.169 67.2591L474.174 67.2561L473.921 66.825ZM486.656 66.825L486.399 67.2544L486.408 67.2591L486.656 66.825ZM491.111 71.28L490.677 71.5281L490.68 71.5332L491.111 71.28ZM492.821 77.715H493.321L493.321 77.7087L492.821 77.715ZM492.326 89.55L492.662 89.92L492.671 89.912L492.679 89.9036L492.326 89.55ZM489.806 89.55L489.452 89.9036L489.461 89.912L489.469 89.92L489.806 89.55ZM489.311 85.545H489.811V83.9741L488.903 85.256L489.311 85.545ZM485.351 88.965L485.581 89.4089L485.351 88.965ZM484.946 85.86L484.693 85.4288L484.688 85.4313L484.946 85.86ZM488.186 82.53L487.75 82.2849L487.748 82.288L488.186 82.53ZM488.186 72.9L487.748 73.1421L487.752 73.1491L488.186 72.9ZM484.946 69.57L484.681 69.9947L484.693 70.0012L484.946 69.57ZM475.676 69.57L475.929 70.0013L475.936 69.9971L475.676 69.57ZM472.391 72.9L471.957 72.6509L472.391 72.9ZM472.391 82.53L471.955 82.7751L471.957 82.7791L472.391 82.53ZM475.676 85.86L475.929 85.4288L475.676 85.86ZM479.951 89.725C477.722 89.725 475.741 89.205 473.995 88.1744L473.487 89.0356C475.4 90.165 477.559 90.725 479.951 90.725V89.725ZM474 88.1775C472.244 87.1123 470.848 85.6746 469.81 83.8569L468.942 84.3531C470.063 86.3154 471.578 87.8777 473.481 89.0325L474 88.1775ZM469.813 83.8622C468.808 82.0534 468.301 80.0084 468.301 77.715H467.301C467.301 80.1616 467.843 82.3765 468.939 84.3478L469.813 83.8622ZM468.301 77.715C468.301 75.3929 468.822 73.335 469.855 71.5281L468.987 71.0319C467.859 73.005 467.301 75.2371 467.301 77.715H468.301ZM469.852 71.5332C470.918 69.7179 472.355 68.2955 474.169 67.2591L473.673 66.3909C471.706 67.5145 470.143 69.0621 468.99 71.0268L469.852 71.5332ZM474.174 67.2561C475.981 66.1949 478.022 65.66 480.311 65.66V64.66C477.859 64.66 475.64 65.2351 473.667 66.3939L474.174 67.2561ZM480.311 65.66C482.599 65.66 484.624 66.1949 486.399 67.2544L486.912 66.3956C484.967 65.2351 482.762 64.66 480.311 64.66V65.66ZM486.408 67.2591C488.22 68.2948 489.641 69.7156 490.677 71.5281L491.545 71.0319C490.42 69.0644 488.871 67.5152 486.904 66.3909L486.408 67.2591ZM490.68 71.5332C491.741 73.3413 492.292 75.3997 492.321 77.7212L493.321 77.7087C493.29 75.2303 492.7 72.9987 491.542 71.0268L490.68 71.5332ZM492.321 77.715V88.29H493.321V77.715H492.321ZM492.321 88.29C492.321 88.6809 492.199 88.9694 491.972 89.1964L492.679 89.9036C493.112 89.4706 493.321 88.9191 493.321 88.29H492.321ZM491.989 89.18C491.765 89.3843 491.47 89.5 491.066 89.5V90.5C491.681 90.5 492.227 90.3157 492.662 89.92L491.989 89.18ZM491.066 89.5C490.661 89.5 490.367 89.3843 490.142 89.18L489.469 89.92C489.905 90.3157 490.45 90.5 491.066 90.5V89.5ZM490.159 89.1964C489.932 88.9694 489.811 88.6809 489.811 88.29H488.811C488.811 88.9191 489.019 89.4706 489.452 89.9036L490.159 89.1964ZM489.811 88.29V85.545H488.811V88.29H489.811ZM488.903 85.256C487.93 86.6287 486.672 87.7165 485.121 88.5211L485.581 89.4089C487.269 88.5335 488.651 87.3413 489.719 85.834L488.903 85.256ZM485.121 88.5211C483.578 89.3212 481.858 89.725 479.951 89.725V90.725C482.004 90.725 483.884 90.2888 485.581 89.4089L485.121 88.5211ZM480.311 87.575C482.131 87.575 483.767 87.1502 485.203 86.2887L484.688 85.4313C483.424 86.1898 481.97 86.575 480.311 86.575V87.575ZM485.199 86.2912C486.657 85.4355 487.8 84.2599 488.623 82.772L487.748 82.288C487.011 83.6201 485.995 84.6645 484.693 85.4288L485.199 86.2912ZM488.621 82.7751C489.477 81.255 489.901 79.5645 489.901 77.715H488.901C488.901 79.4055 488.515 80.925 487.75 82.2849L488.621 82.7751ZM489.901 77.715C489.901 75.8372 489.477 74.1446 488.619 72.6509L487.752 73.1491C488.514 74.4754 488.901 75.9928 488.901 77.715H489.901ZM488.623 72.658C487.8 71.1701 486.657 69.9945 485.199 69.1388L484.693 70.0012C485.995 70.7655 487.011 71.8099 487.748 73.142L488.623 72.658ZM485.21 69.1455C483.773 68.2515 482.135 67.81 480.311 67.81V68.81C481.966 68.81 483.418 69.2085 484.682 69.9945L485.21 69.1455ZM480.311 67.81C478.515 67.81 476.879 68.2524 475.416 69.1429L475.936 69.9971C477.233 69.2076 478.687 68.81 480.311 68.81V67.81ZM475.423 69.1388C473.966 69.9935 472.81 71.1668 471.957 72.6509L472.824 73.1491C473.592 71.8131 474.625 70.7665 475.929 70.0012L475.423 69.1388ZM471.957 72.6509C471.099 74.1446 470.676 75.8372 470.676 77.715H471.676C471.676 75.9928 472.062 74.4754 472.824 73.1491L471.957 72.6509ZM470.676 77.715C470.676 79.5645 471.1 81.255 471.955 82.7751L472.826 82.2849C472.062 80.925 471.676 79.4055 471.676 77.715H470.676ZM471.957 82.7791C472.81 84.2631 473.966 85.4365 475.423 86.2912L475.929 85.4288C474.625 84.6635 473.592 83.6169 472.824 82.2809L471.957 82.7791ZM475.423 86.2912C476.885 87.1494 478.518 87.575 480.311 87.575V86.575C478.683 86.575 477.227 86.1906 475.929 85.4288L475.423 86.2912Z" fill="#013220"/>
</svg>
